<svg width="65" height="42" viewBox="0 0 65 42" fill="none" xmlns="http://www.w3.org/2000/svg">
<path d="M8.47986 8.19485H1.50552C1.16848 8.19485 0.895264 7.92163 0.895264 7.58459C0.895264 7.24756 1.16848 6.97434 1.50552 6.97434H7.8696V0.610255C7.8696 0.27322 8.14282 0 8.47986 0C8.81689 0 9.09011 0.27322 9.09011 0.610255V7.58459C9.09011 7.92163 8.81689 8.19485 8.47986 8.19485Z" fill="#F8F8F8"/>
<path d="M29.4029 41.323H1.50552C1.16848 41.323 0.895264 41.0497 0.895264 40.7127V7.58459C0.895264 7.42279 0.959515 7.26752 1.07398 7.15306L8.04832 0.178717C8.16278 0.064251 8.31796 0 8.47985 0H29.4029C29.7399 0 30.0131 0.27322 30.0131 0.610255V7.58459C30.0131 7.92163 29.7399 8.19485 29.4029 8.19485C29.0658 8.19485 28.7926 7.92163 28.7926 7.58459V1.22051H8.73259L2.11577 7.83733V40.1024H29.4029C29.7399 40.1024 30.0131 40.3757 30.0131 40.7127C30.0131 41.0497 29.7399 41.323 29.4029 41.323Z" fill="#F8F8F8"/>
<path d="M12.8391 16.9128H7.6083C7.27127 16.9128 6.99805 16.6396 6.99805 16.3025V11.0718C6.99805 10.7347 7.27127 10.4615 7.6083 10.4615H12.8391C13.1761 10.4615 13.4493 10.7347 13.4493 11.0718V16.3025C13.4493 16.6396 13.1761 16.9128 12.8391 16.9128ZM8.21856 15.6923H12.2288V11.682H8.21856V15.6923Z" fill="#F8F8F8"/>
<path d="M12.8391 27.3743H7.6083C7.27127 27.3743 6.99805 27.101 6.99805 26.764V21.5333C6.99805 21.1962 7.27127 20.923 7.6083 20.923H12.8391C13.1761 20.923 13.4493 21.1962 13.4493 21.5333V26.764C13.4493 27.101 13.1761 27.3743 12.8391 27.3743ZM8.21856 26.1538H12.2288V22.1435H8.21856V26.1538Z" fill="#F8F8F8"/>
<path d="M12.8391 37.8358H7.6083C7.27127 37.8358 6.99805 37.5626 6.99805 37.2255V31.9948C6.99805 31.6577 7.27127 31.3845 7.6083 31.3845H12.8391C13.1761 31.3845 13.4493 31.6577 13.4493 31.9948V37.2255C13.4493 37.5626 13.1761 37.8358 12.8391 37.8358ZM8.21856 36.6153H12.2288V32.605H8.21856V36.6153Z" fill="#F8F8F8"/>
<path d="M25.9161 12.5538H17.1982C16.8612 12.5538 16.588 12.2806 16.588 11.9436C16.588 11.6065 16.8612 11.3333 17.1982 11.3333H25.9161C26.2532 11.3333 26.5264 11.6065 26.5264 11.9436C26.5264 12.2806 26.2532 12.5538 25.9161 12.5538Z" fill="#F8F8F8"/>
<path d="M23.3003 16.041H17.1977C16.8607 16.041 16.5875 15.7678 16.5875 15.4307C16.5875 15.0937 16.8607 14.8205 17.1977 14.8205H23.3003C23.6373 14.8205 23.9105 15.0937 23.9105 15.4307C23.9105 15.7678 23.6373 16.041 23.3003 16.041Z" fill="#F8F8F8"/>
<path d="M25.9161 23.0153H17.1982C16.8612 23.0153 16.588 22.7421 16.588 22.4051C16.588 22.068 16.8612 21.7948 17.1982 21.7948H25.9161C26.2532 21.7948 26.5264 22.068 26.5264 22.4051C26.5264 22.7421 26.2532 23.0153 25.9161 23.0153Z" fill="#F8F8F8"/>
<path d="M23.3003 26.5025H17.1977C16.8607 26.5025 16.5875 26.2292 16.5875 25.8922C16.5875 25.5552 16.8607 25.282 17.1977 25.282H23.3003C23.6373 25.282 23.9105 25.5552 23.9105 25.8922C23.9105 26.2292 23.6373 26.5025 23.3003 26.5025Z" fill="#F8F8F8"/>
<path d="M25.9161 33.4768H17.1982C16.8612 33.4768 16.588 33.2036 16.588 32.8666C16.588 32.5295 16.8612 32.2563 17.1982 32.2563H25.9161C26.2532 32.2563 26.5264 32.5295 26.5264 32.8666C26.5264 33.2036 26.2532 33.4768 25.9161 33.4768Z" fill="#F8F8F8"/>
<path d="M23.3003 36.964H17.1977C16.8607 36.964 16.5875 36.6908 16.5875 36.3538C16.5875 36.0167 16.8607 35.7435 17.1977 35.7435H23.3003C23.6373 35.7435 23.9105 36.0167 23.9105 36.3538C23.9105 36.6908 23.6373 36.964 23.3003 36.964Z" fill="#F8F8F8"/>
<path d="M61.0806 9.8756H61.0804L30.5521 9.8756L30.5518 9.8756C29.699 9.87684 28.8815 10.2162 28.2785 10.8192C27.6755 11.4222 27.3362 12.2397 27.3349 13.0925V13.0927L27.3349 31.9963L27.3349 31.9966C27.3362 32.8494 27.6755 33.6669 28.2785 34.2699C28.8815 34.8729 29.699 35.2122 30.5518 35.2135H30.5521H42.9836V40.2787H38.2154C38.0571 40.2787 37.9052 40.3416 37.7932 40.4536C37.6812 40.5656 37.6183 40.7175 37.6183 40.8758C37.6183 41.0342 37.6812 41.1861 37.7932 41.2981C37.9052 41.41 38.0571 41.4729 38.2154 41.4729H52.9699C53.1283 41.4729 53.2801 41.41 53.3921 41.2981C53.5041 41.1861 53.567 41.0342 53.567 40.8758C53.567 40.7175 53.5041 40.5656 53.3921 40.4536C53.2801 40.3416 53.1283 40.2787 52.9699 40.2787H48.2017V35.2135H61.0804H61.0806C61.9334 35.2122 62.7509 34.8729 63.3539 34.2699C63.957 33.6669 64.2963 32.8494 64.2975 31.9966V31.9963V13.0927V13.0925C64.2963 12.2397 63.957 11.4222 63.3539 10.8192L63.2479 10.9253L63.3539 10.8192C62.7509 10.2162 61.9334 9.87684 61.0806 9.8756ZM30.5522 11.0698H61.0802C61.6164 11.071 62.1304 11.2845 62.5095 11.6636C62.8887 12.0428 63.1022 12.5568 63.1033 13.0931V28.654H28.5291V13.0929C28.5303 12.5567 28.7438 12.0428 29.1229 11.6636C29.5021 11.2845 30.016 11.071 30.5522 11.0698ZM47.0075 40.2787H44.1778V35.2135H47.0075V40.2787ZM63.1033 31.996C63.1022 32.5323 62.8887 33.0463 62.5095 33.4255C62.1303 33.8047 61.6163 34.0182 61.0801 34.0193H30.5524C30.0161 34.0182 29.5021 33.8047 29.1229 33.4255C28.7438 33.0463 28.5303 32.5324 28.5291 31.9962V29.8482H63.1033V31.996Z" fill="#F8F8F8" stroke="#F8F8F8" stroke-width="0.3"/>
<path d="M45.6059 33.2751C45.8526 33.2751 46.0938 33.2019 46.2989 33.0648C46.504 32.9278 46.6639 32.7329 46.7583 32.505C46.8528 32.2771 46.8775 32.0263 46.8293 31.7843C46.7812 31.5423 46.6624 31.32 46.4879 31.1456C46.3135 30.9711 46.0912 30.8523 45.8492 30.8042C45.6073 30.756 45.3565 30.7808 45.1285 30.8752C44.9006 30.9696 44.7058 31.1295 44.5687 31.3346C44.4316 31.5397 44.3585 31.7809 44.3585 32.0276C44.3585 32.3585 44.4899 32.6758 44.7238 32.9097C44.9578 33.1436 45.275 33.2751 45.6059 33.2751ZM45.6059 31.4553C45.72 31.4553 45.8315 31.4892 45.9263 31.5525C46.0212 31.6159 46.0951 31.706 46.1387 31.8114C46.1824 31.9168 46.1938 32.0327 46.1716 32.1446C46.1493 32.2565 46.0944 32.3593 46.0137 32.4399C45.9331 32.5206 45.8303 32.5755 45.7184 32.5978C45.6065 32.62 45.4906 32.6086 45.3852 32.565C45.2798 32.5213 45.1897 32.4474 45.1263 32.3525C45.0629 32.2577 45.0291 32.1462 45.0291 32.0321C45.0371 31.8846 45.1014 31.7458 45.2087 31.6444C45.316 31.5429 45.4582 31.4864 45.6059 31.4866V31.4553Z" fill="#F8F8F8"/>
</svg>
