<svg width="40" height="36" viewBox="0 0 40 36" fill="none" xmlns="http://www.w3.org/2000/svg">
<path d="M1.41016 32V23.4688H4.19922C5.125 23.4688 5.82031 23.6602 6.28516 24.043C6.75391 24.4258 6.98828 24.9922 6.98828 25.7422C6.98828 26.1406 6.875 26.4941 6.64844 26.8027C6.42188 27.1074 6.11328 27.3438 5.72266 27.5117C6.18359 27.6406 6.54688 27.8867 6.8125 28.25C7.08203 28.6094 7.2168 29.0391 7.2168 29.5391C7.2168 30.3047 6.96875 30.9062 6.47266 31.3438C5.97656 31.7812 5.27539 32 4.36914 32H1.41016ZM2.53516 28.0098V31.0801H4.39258C4.91602 31.0801 5.32812 30.9453 5.62891 30.6758C5.93359 30.4023 6.08594 30.0273 6.08594 29.5508C6.08594 28.5234 5.52734 28.0098 4.41016 28.0098H2.53516ZM2.53516 27.1074H4.23438C4.72656 27.1074 5.11914 26.9844 5.41211 26.7383C5.70898 26.4922 5.85742 26.1582 5.85742 25.7363C5.85742 25.2676 5.7207 24.9277 5.44727 24.7168C5.17383 24.502 4.75781 24.3945 4.19922 24.3945H2.53516V27.1074ZM13.0309 31.373C12.609 31.8691 11.9898 32.1172 11.1734 32.1172C10.4977 32.1172 9.98203 31.9219 9.62656 31.5312C9.275 31.1367 9.09727 30.5547 9.09336 29.7852V25.6602H10.1773V29.7559C10.1773 30.7168 10.568 31.1973 11.3492 31.1973C12.1773 31.1973 12.7281 30.8887 13.0016 30.2715V25.6602H14.0855V32H13.0543L13.0309 31.373ZM19.8293 30.3184C19.8293 30.0254 19.718 29.7988 19.4953 29.6387C19.2766 29.4746 18.8918 29.334 18.341 29.2168C17.7941 29.0996 17.3586 28.959 17.0344 28.7949C16.7141 28.6309 16.4758 28.4355 16.3195 28.209C16.1672 27.9824 16.091 27.7129 16.091 27.4004C16.091 26.8809 16.3098 26.4414 16.7473 26.082C17.1887 25.7227 17.7512 25.543 18.4348 25.543C19.1535 25.543 19.7355 25.7285 20.1809 26.0996C20.6301 26.4707 20.8547 26.9453 20.8547 27.5234H19.7648C19.7648 27.2266 19.6379 26.9707 19.384 26.7559C19.134 26.541 18.8176 26.4336 18.4348 26.4336C18.0402 26.4336 17.7316 26.5195 17.509 26.6914C17.2863 26.8633 17.175 27.0879 17.175 27.3652C17.175 27.627 17.2785 27.8242 17.4855 27.957C17.6926 28.0898 18.0656 28.2168 18.6047 28.3379C19.1477 28.459 19.5871 28.6035 19.923 28.7715C20.259 28.9395 20.507 29.1426 20.6672 29.3809C20.8313 29.6152 20.9133 29.9023 20.9133 30.2422C20.9133 30.8086 20.6867 31.2637 20.2336 31.6074C19.7805 31.9473 19.1926 32.1172 18.4699 32.1172C17.9621 32.1172 17.5129 32.0273 17.1223 31.8477C16.7316 31.668 16.425 31.418 16.2023 31.0977C15.9836 30.7734 15.8742 30.4238 15.8742 30.0488H16.9582C16.9777 30.4121 17.1223 30.7012 17.3918 30.916C17.6652 31.127 18.0246 31.2324 18.4699 31.2324C18.8801 31.2324 19.2082 31.1504 19.4543 30.9863C19.7043 30.8184 19.8293 30.5957 19.8293 30.3184ZM25.2684 31.2324C25.6551 31.2324 25.993 31.1152 26.282 30.8809C26.5711 30.6465 26.7313 30.3535 26.7625 30.002H27.7879C27.7684 30.3652 27.6434 30.7109 27.4129 31.0391C27.1824 31.3672 26.8738 31.6289 26.4871 31.8242C26.1043 32.0195 25.698 32.1172 25.2684 32.1172C24.4051 32.1172 23.7176 31.8301 23.2059 31.2559C22.698 30.6777 22.4441 29.8887 22.4441 28.8887V28.707C22.4441 28.0898 22.5574 27.541 22.784 27.0605C23.0105 26.5801 23.3348 26.207 23.7566 25.9414C24.1824 25.6758 24.6844 25.543 25.2625 25.543C25.9734 25.543 26.5633 25.7559 27.032 26.1816C27.5047 26.6074 27.7566 27.1602 27.7879 27.8398H26.7625C26.7313 27.4297 26.575 27.0938 26.2938 26.832C26.0164 26.5664 25.6727 26.4336 25.2625 26.4336C24.7117 26.4336 24.284 26.6328 23.9793 27.0312C23.6785 27.4258 23.5281 27.998 23.5281 28.748V28.9531C23.5281 29.6836 23.6785 30.2461 23.9793 30.6406C24.2801 31.0352 24.7098 31.2324 25.2684 31.2324ZM33.3207 32C33.2582 31.875 33.2074 31.6523 33.1684 31.332C32.6645 31.8555 32.0629 32.1172 31.3637 32.1172C30.7387 32.1172 30.225 31.9414 29.8227 31.5898C29.4242 31.2344 29.225 30.7852 29.225 30.2422C29.225 29.582 29.475 29.0703 29.975 28.707C30.4789 28.3398 31.1859 28.1562 32.0961 28.1562H33.1508V27.6582C33.1508 27.2793 33.0375 26.9785 32.8109 26.7559C32.5844 26.5293 32.2504 26.416 31.809 26.416C31.4223 26.416 31.098 26.5137 30.8363 26.709C30.5746 26.9043 30.4438 27.1406 30.4438 27.418H29.3539C29.3539 27.1016 29.4652 26.7969 29.6879 26.5039C29.9145 26.207 30.2191 25.9727 30.602 25.8008C30.9887 25.6289 31.4125 25.543 31.8734 25.543C32.6039 25.543 33.1762 25.7266 33.5902 26.0938C34.0043 26.457 34.2191 26.959 34.2348 27.5996V30.5176C34.2348 31.0996 34.309 31.5625 34.4574 31.9062V32H33.3207ZM31.5219 31.1738C31.8617 31.1738 32.184 31.0859 32.4887 30.9102C32.7934 30.7344 33.0141 30.5059 33.1508 30.2246V28.9238H32.3012C30.973 28.9238 30.309 29.3125 30.309 30.0898C30.309 30.4297 30.4223 30.6953 30.6488 30.8867C30.8754 31.0781 31.1664 31.1738 31.5219 31.1738ZM39.3984 26.6328C39.2344 26.6055 39.0566 26.5918 38.8652 26.5918C38.1543 26.5918 37.6719 26.8945 37.418 27.5V32H36.334V25.6602H37.3887L37.4062 26.3926C37.7617 25.8262 38.2656 25.543 38.918 25.543C39.1289 25.543 39.2891 25.5703 39.3984 25.625V26.6328Z" fill="#7B7B7B" fill-opacity="0.65"/>
<path fill-rule="evenodd" clip-rule="evenodd" d="M23.5 11H22.71L22.43 10.73C23.41 9.59 24 8.11 24 6.5C24 2.91 21.09 0 17.5 0C13.91 0 11 2.91 11 6.5C11 10.09 13.91 13 17.5 13C19.11 13 20.59 12.41 21.73 11.43L22 11.71V12.5L27 17.49L28.49 16L23.5 11ZM17.5 11C15.01 11 13 8.99 13 6.5C13 4.01 15.01 2 17.5 2C19.99 2 22 4.01 22 6.5C22 8.99 19.99 11 17.5 11Z" fill="#7B7B7B" fill-opacity="0.65"/>
</svg>
