<svg width="53" height="32" viewBox="0 0 53 32" fill="none" xmlns="http://www.w3.org/2000/svg">
<path d="M34.602 19.6496L31.9557 14.0009L31.9153 13.9145H31.8199H20.7797H20.6843L20.6438 14.0009L17.9976 19.6496L17.8211 19.2715L17.7807 19.185H17.6852H6.65388H6.55852L6.51805 19.2713L0.864173 31.3371L0.76406 31.5507H1H23.3391H23.5747L23.475 31.3373L21.1134 26.2803H31.4947L29.1247 31.3371L29.0245 31.5507H29.2605H51.5995H51.8355L51.7354 31.3371L46.0815 19.2713L46.041 19.185H45.9457H34.9144H34.8188L34.7784 19.2715L34.602 19.6496ZM35.1394 21.307L35.1395 21.3066L35.5719 20.3767H45.2795L49.9546 30.3589H30.8965L32.8474 26.1942L32.8475 26.1939L33.427 24.9636L33.4272 24.9633L35.1394 21.307ZM32.4778 24.1582L32.4776 24.1587L32.0452 25.0885H20.5543L20.122 24.1587L20.1218 24.1582L18.6624 21.0471L21.4458 15.1063H31.1538L33.9372 21.0471L32.4778 24.1582ZM17.46 21.3066L17.4601 21.3069L19.1723 24.9721L19.1725 24.9725L19.752 26.2029L19.7522 26.2032L21.7031 30.3679H2.64481L7.32004 20.3767H17.0277L17.46 21.3066Z" fill="#F8F8F8" stroke="#F8F8F8" stroke-width="0.3"/>
<path d="M12.174 19.1461C15.7705 19.1461 18.6913 16.2252 18.6913 12.6288C18.6913 9.03232 15.7705 6.11147 12.174 6.11147C8.57755 6.11147 5.6567 9.03232 5.6567 12.6288C5.6567 16.2252 8.57755 19.1461 12.174 19.1461ZM12.174 7.30325C15.1143 7.30325 17.4995 9.68849 17.4995 12.6288C17.4995 15.5691 15.1143 17.9543 12.174 17.9543C9.23387 17.9543 6.84848 15.5603 6.84848 12.6288C6.84848 9.69725 9.23387 7.30325 12.174 7.30325Z" fill="#F8F8F8" stroke="#F8F8F8" stroke-width="0.3"/>
<path d="M40.4257 19.1461C44.0221 19.1461 46.943 16.2252 46.943 12.6288C46.943 9.03232 44.0221 6.11147 40.4257 6.11147C36.8292 6.11147 33.9083 9.03232 33.9083 12.6288C33.9083 16.2254 36.8383 19.1461 40.4257 19.1461ZM40.4257 7.30325C43.3659 7.30325 45.7512 9.68849 45.7512 12.6288C45.7512 15.5691 43.3659 17.9543 40.4257 17.9543C37.4854 17.9543 35.1001 15.5691 35.1001 12.6288C35.1001 9.68865 37.4941 7.30325 40.4257 7.30325Z" fill="#F8F8F8" stroke="#F8F8F8" stroke-width="0.3"/>
<path d="M26.3001 13.8846C29.8966 13.8846 32.8174 10.9638 32.8174 7.3673C32.8174 3.77085 29.8966 0.85 26.3001 0.85C22.7036 0.85 19.7828 3.77085 19.7828 7.3673C19.7828 10.9638 22.7036 13.8846 26.3001 13.8846ZM26.3001 2.03286C29.2402 2.03286 31.6256 4.42686 31.6256 7.35838C31.6256 10.2899 29.2402 12.6839 26.3001 12.6839C23.3598 12.6839 20.9746 10.2987 20.9746 7.35838C20.9746 4.4181 23.3598 2.03286 26.3001 2.03286Z" fill="#F8F8F8" stroke="#F8F8F8" stroke-width="0.3"/>
</svg>
