<svg width="44" height="43" viewBox="0 0 44 43" fill="none" xmlns="http://www.w3.org/2000/svg">
<path d="M9.68666 28.4285C7.68798 28.4285 6.02001 26.98 5.67971 25.0758H0V5.89001H19.1672V12.9456H18.4483C16.996 12.9456 15.8169 14.1303 15.8169 15.5836C15.8169 17.0369 16.996 18.2169 18.4483 18.2169H19.1672V25.0758H13.6936C13.3533 26.98 11.6853 28.4285 9.68666 28.4285ZM1.4379 23.6368H7.0553V24.3563C7.0553 25.8096 8.23438 26.9895 9.68666 26.9895C11.1389 26.9895 12.318 25.8096 12.318 24.3563V23.6368H17.7293V19.5934C15.8265 19.2529 14.379 17.5837 14.379 15.5836C14.379 13.5835 15.8265 11.9095 17.7293 11.569V7.32895H1.4379V23.6368Z" fill="#F8F8F8"/>
<path d="M19.172 42.8178H0V23.6368H7.05051V24.3563C7.05051 25.8096 8.22959 26.9896 9.68187 26.9896C11.1341 26.9896 12.3132 25.8096 12.3132 24.3563V23.6368H19.1672V29.1192C19.982 29.2631 20.7297 29.6468 21.3289 30.2463C22.1005 31.0138 22.5223 32.0402 22.5223 33.1338C22.5223 35.1339 21.0748 36.8031 19.172 37.1436V42.8178ZM1.4379 41.3789H17.7341V35.7622H18.4531C19.9053 35.7622 21.0844 34.5823 21.0844 33.129C21.0844 32.4239 20.8112 31.7572 20.3127 31.2632C19.8191 30.7691 19.1576 30.4957 18.4579 30.4957H18.4531H17.7341V25.0758H13.6936C13.3533 26.98 11.6853 28.4285 9.68666 28.4285C7.68798 28.4285 6.02001 26.98 5.67971 25.0758H1.4379V41.3789Z" fill="#F8F8F8"/>
<path d="M36.9015 42.8178H17.7295V35.7623H18.4484C19.9007 35.7623 21.0798 34.5823 21.0798 33.129C21.0798 31.6757 19.9007 30.4958 18.4484 30.4958H17.7295V23.6369H23.2079C23.5482 21.7327 25.2162 20.2841 27.2148 20.2841C29.2135 20.2841 30.8815 21.7327 31.2218 23.6369H36.9015V42.8178ZM19.1674 41.3789H35.4636V25.0758H29.8462V24.3563C29.8462 22.903 28.6671 21.7231 27.2148 21.7231C25.7626 21.7231 24.5835 22.903 24.5835 24.3563V25.0758H19.1674V29.1192C21.0702 29.4597 22.5177 31.1289 22.5177 33.129C22.5177 35.1291 21.0702 36.7983 19.1674 37.1388V41.3789Z" fill="#F8F8F8"/>
<path d="M39.2403 20.7494L33.1628 19.0515L33.3545 18.3608C33.6805 17.1952 32.9951 15.9817 31.8304 15.6604C31.2648 15.5021 30.6752 15.574 30.1672 15.8618C29.6591 16.1496 29.2901 16.6197 29.1319 17.1808L28.9402 17.8763L23.0304 16.2216L24.3101 11.6218C22.8003 10.8543 21.9903 9.10364 22.46 7.4105C22.9298 5.71736 24.5306 4.63816 26.2178 4.76287L27.5454 0L43.7601 4.52784L39.2403 20.7494ZM34.8643 18.0346L38.2386 18.9747L41.9915 5.5207L28.5472 1.76989L27.2387 6.4656L26.5485 6.27374C25.3838 5.94759 24.1711 6.63348 23.85 7.79901C23.5241 8.96455 24.2095 10.178 25.3742 10.4994L26.0644 10.6913L24.8038 15.2239L28.0103 16.1208C28.3315 15.4877 28.8299 14.9649 29.4626 14.6052C30.3062 14.1303 31.2887 14.0104 32.2186 14.2694C33.9105 14.7443 34.9889 16.3463 34.8643 18.0346Z" fill="#F8F8F8"/>
</svg>
