<svg width="43" height="43" viewBox="0 0 43 43" fill="none" xmlns="http://www.w3.org/2000/svg">
<path d="M21.5001 6.81167C23.3871 6.81167 24.9222 5.28368 24.9222 3.4061C24.9222 1.52799 23.3871 0 21.5001 0C19.6131 0 18.078 1.52799 18.078 3.4061C18.078 5.28368 19.6131 6.81167 21.5001 6.81167ZM21.5001 1.075C22.7943 1.075 23.8472 2.12061 23.8472 3.4061C23.8472 4.69106 22.7943 5.73667 21.5001 5.73667C20.206 5.73667 19.153 4.69106 19.153 3.4061C19.153 2.12061 20.206 1.075 21.5001 1.075Z" fill="#F8F8F8"/>
<path d="M30.8806 8.69869C30.883 9.61045 31.2402 10.4681 31.8863 11.1138C32.5322 11.7599 33.3899 12.1169 34.3012 12.1195C34.3043 12.1195 34.3077 12.1195 34.3111 12.1195C35.2197 12.1195 36.073 11.7668 36.7141 11.1253C37.3579 10.4818 37.7112 9.62462 37.7086 8.71234C37.7059 7.80058 37.3488 6.94342 36.7029 6.29726C36.057 5.6511 35.1993 5.29417 34.288 5.29155C34.2846 5.29155 34.2812 5.29155 34.2781 5.29155C33.3692 5.29155 32.516 5.64428 31.8748 6.28571C31.231 6.92924 30.878 7.78641 30.8806 8.69869ZM32.6349 7.04577C33.0873 6.59331 33.682 6.3676 34.2781 6.3676C34.8799 6.3676 35.483 6.5975 35.9428 7.05732C36.3863 7.50086 36.6317 8.0898 36.6336 8.71496C36.6354 9.3396 36.394 9.92539 35.9541 10.3653C35.0452 11.2744 33.5616 11.2691 32.6464 10.3537C32.2026 9.91017 31.9572 9.32123 31.9556 8.69607C31.9538 8.07143 32.195 7.48564 32.6349 7.04577Z" fill="#F8F8F8"/>
<path d="M43 21.5C43 19.613 41.4723 18.0782 39.5942 18.0782C37.7161 18.0782 36.1881 19.613 36.1881 21.5C36.1881 23.3871 37.7161 24.9219 39.5942 24.9219C41.4723 24.9219 43 23.3871 43 21.5ZM37.2631 21.5C37.2631 20.2061 38.3087 19.1532 39.5942 19.1532C40.8794 19.1532 41.925 20.2061 41.925 21.5C41.925 22.7939 40.8794 23.8469 39.5942 23.8469C38.3087 23.8469 37.2631 22.7939 37.2631 21.5Z" fill="#F8F8F8"/>
<path d="M34.2781 37.7085C34.2812 37.7085 34.2846 37.7085 34.288 37.7085C35.1993 37.7059 36.057 37.349 36.7029 36.7028C37.3488 36.0567 37.7059 35.1995 37.7086 34.2877C37.7112 33.3754 37.3579 32.5183 36.7141 31.8747C36.0727 31.2333 35.2197 30.8806 34.3111 30.8806C34.3077 30.8806 34.3043 30.8806 34.3012 30.8806C33.3899 30.8832 32.5322 31.2401 31.8863 31.8863C31.2402 32.5319 30.883 33.3896 30.8806 34.3014C30.878 35.2137 31.231 36.0708 31.8748 36.7144C32.5162 37.3558 33.3692 37.7085 34.2781 37.7085ZM32.6464 32.6464C33.1062 32.1865 33.7091 31.9566 34.3109 31.9566C34.9069 31.9566 35.5019 32.1829 35.9541 32.6348C36.394 33.0747 36.6354 33.6605 36.6336 34.2851C36.6317 34.9103 36.3863 35.4992 35.9428 35.9427C35.0276 36.8582 33.5437 36.8634 32.6349 35.9543C32.195 35.5144 31.9538 34.9286 31.9556 34.304C31.9572 33.6788 32.2026 33.0899 32.6464 32.6464Z" fill="#F8F8F8"/>
<path d="M21.5001 36.1884C19.6131 36.1884 18.078 37.7164 18.078 39.594C18.078 41.4721 19.6131 43.0001 21.5001 43.0001C23.3871 43.0001 24.9222 41.4721 24.9222 39.594C24.9222 37.7164 23.3871 36.1884 21.5001 36.1884ZM21.5001 41.9251C20.206 41.9251 19.153 40.8795 19.153 39.594C19.153 38.309 20.206 37.2634 21.5001 37.2634C22.7943 37.2634 23.8472 38.309 23.8472 39.594C23.8472 40.8795 22.7943 41.9251 21.5001 41.9251Z" fill="#F8F8F8"/>
<path d="M8.71217 37.7085C8.71558 37.7085 8.719 37.7085 8.72215 37.7085C9.63102 37.7085 10.4842 37.3558 11.1254 36.7144C11.7692 36.0708 12.1222 35.2137 12.1196 34.3014C12.1172 33.3896 11.76 32.5319 11.1139 31.8863C10.468 31.2401 9.61028 30.8832 8.69905 30.8806C8.6959 30.8806 8.69249 30.8806 8.68908 30.8806C7.78047 30.8806 6.92724 31.2333 6.28607 31.8747C5.64228 32.5183 5.28902 33.3754 5.29164 34.2877C5.29427 35.1995 5.65146 36.0567 6.29736 36.7028C6.94325 37.349 7.80094 37.7059 8.71217 37.7085ZM7.04613 32.6348C7.4986 32.1823 8.09305 31.9566 8.68934 31.9566C9.29088 31.9566 9.89425 32.1865 10.3538 32.6464C10.7976 33.0899 11.043 33.6788 11.0446 34.304C11.0464 34.9286 10.8052 35.5144 10.3654 35.9543C9.45596 36.8634 7.97258 36.8582 7.05742 35.9427C6.61387 35.4992 6.36848 34.9103 6.36664 34.2851C6.36481 33.6605 6.60626 33.0747 7.04613 32.6348Z" fill="#F8F8F8"/>
<path d="M3.40583 24.9219C5.28394 24.9219 6.81193 23.3871 6.81193 21.5C6.81193 19.613 5.28394 18.0782 3.40583 18.0782C1.52773 18.0782 0 19.613 0 21.5C0 23.3871 1.52773 24.9219 3.40583 24.9219ZM3.40583 19.1532C4.69132 19.1532 5.73693 20.2061 5.73693 21.5C5.73693 22.7939 4.69132 23.8469 3.40583 23.8469C2.12061 23.8469 1.075 22.7939 1.075 21.5C1.075 20.2061 2.12061 19.1532 3.40583 19.1532Z" fill="#F8F8F8"/>
<path d="M11.1254 6.28571C10.484 5.64428 9.63102 5.29155 8.72215 5.29155C8.719 5.29155 8.71558 5.29155 8.71217 5.29155C7.80094 5.29417 6.94325 5.6511 6.29736 6.29726C5.65146 6.94342 5.29427 7.80058 5.29164 8.71234C5.28902 9.62462 5.64228 10.4818 6.28607 11.1253C6.9275 11.7668 7.78047 12.1195 8.68908 12.1195C8.69249 12.1195 8.6959 12.1195 8.69905 12.1195C9.61028 12.1169 10.468 11.7599 11.1139 11.1138C11.76 10.4681 12.1172 9.61045 12.1196 8.69869C12.1222 7.78641 11.7692 6.92924 11.1254 6.28571ZM10.3538 10.3537C9.43864 11.2691 7.955 11.2733 7.04613 10.3653C6.60626 9.92539 6.36481 9.3396 6.36664 8.71496C6.36848 8.0898 6.61387 7.50086 7.05742 7.05732C7.51723 6.5975 8.12034 6.3676 8.72215 6.3676C9.31817 6.3676 9.91315 6.59331 10.3654 7.04577C10.8052 7.48564 11.0464 8.07143 11.0446 8.69607C11.043 9.32123 10.7976 9.91017 10.3538 10.3537Z" fill="#F8F8F8"/>
<path d="M12.6984 6.22484C12.7868 6.22484 12.8769 6.2028 12.9598 6.1566C14.076 5.53407 15.2615 5.03384 16.4835 4.67008C16.768 4.58557 16.9302 4.28637 16.8454 4.00188C16.7609 3.71685 16.4617 3.55623 16.1769 3.64022C14.8796 4.02602 13.6209 4.5567 12.4359 5.21808C12.1766 5.36243 12.0837 5.68997 12.2283 5.94927C12.3268 6.12564 12.5097 6.22484 12.6984 6.22484Z" fill="#F8F8F8"/>
<path d="M26.2628 4.59236C27.4922 4.94142 28.6842 5.42591 29.8054 6.0327C29.8868 6.07679 29.9744 6.09779 30.0608 6.09779C30.2518 6.09779 30.4366 5.99596 30.534 5.81644C30.6754 5.55504 30.5783 5.22907 30.3172 5.08735C29.1267 4.44329 27.8614 3.92836 26.5563 3.5583C26.2705 3.47589 25.9734 3.64334 25.8925 3.92836C25.8114 4.21443 25.9773 4.51153 26.2628 4.59236Z" fill="#F8F8F8"/>
<path d="M38.2627 16.4164C38.3322 16.6499 38.5461 16.8006 38.7776 16.8006C38.8285 16.8006 38.8799 16.7932 38.9311 16.778C39.2156 16.6935 39.3778 16.3943 39.293 16.1098C38.9065 14.8117 38.3755 13.553 37.7147 12.3688C37.5706 12.1095 37.2436 12.0177 36.9835 12.1615C36.7242 12.3058 36.6313 12.6334 36.7761 12.8927C37.3984 14.0081 37.8986 15.1939 38.2627 16.4164Z" fill="#F8F8F8"/>
<path d="M37.8455 30.2502C38.4901 29.0592 39.0045 27.7936 39.3748 26.4893C39.4559 26.2037 39.29 25.9061 39.0045 25.8252C38.7192 25.7423 38.4221 25.9103 38.3408 26.1953C37.992 27.4246 37.5072 28.6167 36.9002 29.7389C36.759 29.9998 36.8561 30.3263 37.1169 30.4675C37.1983 30.5111 37.286 30.5321 37.3723 30.5321C37.5634 30.5321 37.7484 30.4302 37.8455 30.2502Z" fill="#F8F8F8"/>
<path d="M26.6696 39.2481C26.7205 39.2481 26.772 39.2407 26.8232 39.2255C28.1205 38.8397 29.3792 38.309 30.5642 37.6476C30.8235 37.5033 30.9164 37.1757 30.7717 36.9164C30.6274 36.6577 30.3004 36.5648 30.0403 36.7091C28.9241 37.3316 27.7386 37.8319 26.5166 38.1956C26.2321 38.2801 26.0699 38.5793 26.1547 38.8638C26.2243 39.0974 26.4379 39.2481 26.6696 39.2481Z" fill="#F8F8F8"/>
<path d="M12.6827 37.7783C13.8734 38.4229 15.1387 38.9373 16.4436 39.3074C16.4927 39.3215 16.542 39.3278 16.5906 39.3278C16.8249 39.3278 17.0404 39.1735 17.1073 38.9368C17.1884 38.6512 17.0226 38.3541 16.737 38.2733C15.508 37.9248 14.3159 37.4398 13.1944 36.833C12.933 36.6918 12.6073 36.7889 12.4659 37.0492C12.3244 37.3106 12.4215 37.6366 12.6827 37.7783Z" fill="#F8F8F8"/>
<path d="M6.01677 30.7042C6.27607 30.5599 6.36898 30.2323 6.2241 29.973C5.60183 28.8576 5.1016 27.6719 4.73758 26.4494C4.65254 26.1643 4.35203 26.0032 4.06911 26.0877C3.78461 26.1722 3.62242 26.4714 3.70719 26.7559C4.09378 28.054 4.62472 29.3127 5.28558 30.4969C5.38373 30.6732 5.56666 30.7725 5.75536 30.7725C5.84407 30.7725 5.93383 30.7504 6.01677 30.7042Z" fill="#F8F8F8"/>
<path d="M3.99551 17.0405C4.04459 17.0546 4.09393 17.0609 4.14248 17.0609C4.37685 17.0609 4.59206 16.9066 4.65925 16.6704C5.00805 15.4411 5.4928 14.249 6.09985 13.1268C6.24105 12.8659 6.14394 12.5394 5.88306 12.3982C5.62192 12.2586 5.29569 12.3541 5.1545 12.6155C4.50991 13.8065 3.99551 15.0721 3.62519 16.3765C3.54409 16.662 3.70996 16.9596 3.99551 17.0405Z" fill="#F8F8F8"/>
<path d="M28.8437 16.9612C28.7004 13.2407 25.6801 10.1464 21.968 9.91646C19.9196 9.78944 17.9614 10.4912 16.4681 11.8943C14.9952 13.2785 14.1506 15.2306 14.1506 17.2509C14.1506 19.1149 14.8495 20.8927 16.1188 22.2569C17.0356 23.2419 17.5825 24.5295 17.691 25.924C17.4538 25.9798 17.2735 26.1828 17.2735 26.4373V29.2135C17.2735 29.8659 17.7523 30.4052 18.3764 30.5079V31.217C18.3764 32.2894 19.249 33.1618 20.3217 33.1618H22.5987C23.6713 33.1618 24.544 32.2894 24.544 31.217V30.5159C25.2063 30.448 25.7266 29.8933 25.7266 29.2135V26.4373C25.7266 26.1827 25.5461 25.9796 25.3087 25.9239C25.4157 24.5245 25.9563 23.2434 26.863 22.2758C28.2167 20.8318 28.9204 18.9443 28.8437 16.9612ZM22.5987 32.0868H20.3217C19.8419 32.0868 19.4514 31.6968 19.4514 31.217V30.5294H23.469V31.217C23.469 31.6968 23.0785 32.0868 22.5987 32.0868ZM24.6516 29.2135C24.6516 29.3463 24.5435 29.4544 24.4107 29.4544H18.5895C18.4567 29.4544 18.3485 29.3463 18.3485 29.2135V26.9748H24.6516V29.2135ZM24.235 25.8998H18.7648C18.6488 24.2409 18.0025 22.7026 16.9056 21.5242C15.8222 20.3599 15.2256 18.8424 15.2256 17.2509C15.2256 15.5009 15.9282 13.8769 17.2043 12.678C18.4787 11.4796 20.1484 10.8807 21.9014 10.9894C25.0697 11.1857 27.6472 13.827 27.7698 17.0021C27.8349 18.696 27.2344 20.308 26.0788 21.541C24.9908 22.7018 24.3498 24.234 24.235 25.8998Z" fill="#F8F8F8"/>
</svg>
