<svg width="67" height="69" viewBox="0 0 67 69" fill="none" xmlns="http://www.w3.org/2000/svg">
<path d="M32.5176 1H32.2074V17.0647H32.4743C32.6041 17.0647 45.6103 18.5579 49.0007 29.3278C52.7373 41.1654 43.8934 48.7252 43.7997 48.8046L43.5616 49.0066L54.7716 61.2048L54.988 61.01C55.1395 60.8513 70.3962 47.0878 65.3179 26.5795C59.244 1.98105 32.7773 1.00721 32.5176 1ZM54.8076 60.3464L44.4128 49.0643C45.8555 47.7442 53.0692 40.2853 49.5706 29.1619C46.3389 18.9114 34.7177 16.8122 32.8061 16.5381V1.60594C35.7565 1.7935 59.1286 3.97922 64.748 26.6949C69.4008 45.544 56.6327 58.6007 54.8076 60.3464Z" fill="white" stroke="white" stroke-width="0.4"/>
<path d="M30.3174 17.3389H30.6203V7.30481L30.3895 7.25432C30.1442 7.19661 24.2723 5.97751 18.4149 10.5798L18.1985 10.7457L18.35 10.9765C20.0366 13.575 21.5779 16.265 22.9667 19.0341L23.147 19.366L23.4284 19.1784C25.5179 17.9578 27.8975 17.3224 30.3174 17.3389V17.3389ZM18.992 10.8467C22.1297 8.42578 26.0954 7.33973 30.0288 7.82419V16.7691C27.7055 16.7872 25.4238 17.3874 23.3923 18.5148C22.0558 15.8955 20.5871 13.3458 18.992 10.8755V10.8467Z" fill="white" stroke="white" stroke-width="0.4"/>
<path d="M13.4305 31.3189L13.7767 31.4127V31.052C14.0805 28.6915 14.9312 26.4344 16.2612 24.4607C17.5912 22.487 19.3637 20.8511 21.4376 19.6834L21.7045 19.5319L15.7028 9.38232L15.4575 9.50496C13.3609 10.6769 11.4601 12.1688 9.82367 13.9269C5.83561 18.1106 3.12522 23.3462 2.01133 29.0178L1.94641 29.328L2.2566 29.3712C10.7398 30.5976 13.4088 31.3117 13.4305 31.3189ZM15.4719 10.1758L20.8821 19.3227C18.8495 20.5287 17.1107 22.172 15.7919 24.1333C14.4731 26.0947 13.6073 28.325 13.2574 30.6625C12.3412 30.4461 9.39807 29.8113 2.66056 28.8302C5.32959 16.4805 13.921 11.0559 15.4791 10.1686L15.4719 10.1758Z" fill="white" stroke="white" stroke-width="0.4"/>
<path d="M7.14712 54.287L7.36353 54.1211C13.1344 49.7352 16.7412 46.6261 16.7917 46.5973L17.037 46.3809L16.7989 46.1572C15.2786 44.4509 14.171 42.4178 13.5618 40.2151C12.9527 38.0124 12.8583 35.6991 13.2859 33.4541L13.3364 33.1439L1.07326 31.7012V32.0041C1.07326 32.1484 -0.102555 46.4819 6.96678 54.0994L7.14712 54.287ZM1.64314 32.3504L12.6511 33.6633C12.2805 35.9065 12.4028 38.2035 13.0094 40.3948C13.6161 42.586 14.6926 44.6188 16.1641 46.352C15.2841 47.0734 12.0091 49.8362 7.21926 53.4863C1.08769 46.6333 1.52051 34.4351 1.64314 32.3504Z" fill="white" stroke="white" stroke-width="0.4"/>
<path d="M52.1313 60.808L42.7536 49.8073L42.5228 50.0597C42.4867 50.103 38.4543 54.3879 30.6059 54.2148C28.2267 54.1049 25.8939 53.5176 23.7462 52.4878C21.5986 51.4579 19.6801 50.0067 18.1047 48.2203L17.9172 47.9606L7.2699 56.8766L7.47909 57.1074C7.58008 57.2156 17.4699 67.9278 30.2236 68H30.5049C38.189 67.9379 45.6646 65.4931 51.9005 61.0028L52.1313 60.808ZM30.4905 67.4012H30.2236C18.7612 67.3075 9.62875 58.4636 8.12832 56.9271L17.8378 48.8046C19.4693 50.6 21.44 52.0546 23.6363 53.0847C25.8327 54.1148 28.2112 54.6999 30.6348 54.8063C37.7907 55.0011 41.787 51.6395 42.7681 50.6945L51.2801 60.7142C45.1921 65.0013 37.9434 67.3337 30.4977 67.4012H30.4905Z" fill="white" stroke="white" stroke-width="0.4"/>
</svg>
