<svg width="35" height="36" viewBox="0 0 35 36" fill="none" xmlns="http://www.w3.org/2000/svg">
<path d="M16.9149 1.00006H16.7583V9.11199H16.8931C16.9586 9.11199 23.5261 9.866 25.2381 15.3043C27.125 21.2817 22.6592 25.0991 22.6119 25.1392L22.4917 25.2411L28.1522 31.4007L28.2614 31.3023C28.3379 31.2222 36.0419 24.2722 33.4775 13.9165C30.4105 1.49545 17.0461 1.0037 16.9149 1.00006ZM28.1704 30.9672L22.9215 25.2703C23.65 24.6037 27.2925 20.8373 25.5259 15.2205C23.894 10.0445 18.0259 8.9845 17.0606 8.84609V1.30603C18.5504 1.40074 30.3523 2.50443 33.1898 13.9748C35.5392 23.4927 29.0919 30.0857 28.1704 30.9672Z" fill="#525252" stroke="#525252" stroke-width="0.4"/>
<path d="M15.804 9.25039H15.957V4.18362L15.8405 4.15812C15.7166 4.12898 12.7516 3.51339 9.79385 5.83733L9.68457 5.92111L9.76106 6.03767C10.6127 7.34978 11.391 8.7081 12.0923 10.1064L12.1834 10.2739L12.3254 10.1792C13.3805 9.56288 14.5821 9.24203 15.804 9.25039ZM10.0852 5.9721C11.6696 4.74965 13.6722 4.20125 15.6583 4.44588V8.96263C14.4852 8.97178 13.333 9.27485 12.3072 9.84412C11.6323 8.52153 10.8907 7.23406 10.0852 5.98667V5.9721Z" fill="#525252" stroke="#525252" stroke-width="0.4"/>
<path d="M7.27695 16.3096L7.45179 16.357V16.1749C7.60515 14.9829 8.03474 13.8432 8.70633 12.8465C9.37793 11.8499 10.273 11.0239 11.3202 10.4342L11.4549 10.3577L8.42435 5.23267L8.3005 5.29459C7.24184 5.88635 6.28201 6.6397 5.45568 7.52746C3.44189 9.64003 2.07327 12.2838 1.51081 15.1477L1.47803 15.3043L1.63466 15.3261C5.91828 15.9454 7.26602 16.306 7.27695 16.3096ZM8.30779 5.63335L11.0397 10.2521C10.0133 10.8611 9.13528 11.6908 8.46934 12.6812C7.80341 13.6716 7.36623 14.7978 7.18953 15.9782C6.72692 15.8689 5.24077 15.5483 1.83864 15.0529C3.18638 8.81692 7.52464 6.07773 8.31143 5.6297L8.30779 5.63335Z" fill="#525252" stroke="#525252" stroke-width="0.4"/>
<path d="M4.10401 27.9074L4.21329 27.8236C7.12732 25.609 8.94859 24.039 8.97408 24.0245L9.09793 23.9152L8.97773 23.8023C8.21001 22.9407 7.65074 21.914 7.34314 20.8018C7.03555 19.6895 6.98787 18.5214 7.20381 17.3878L7.22931 17.2311L1.03699 16.5026V16.6556C1.03699 16.7285 0.443261 23.9662 4.01295 27.8127L4.10401 27.9074ZM1.32476 16.8305L6.88327 17.4934C6.69612 18.6261 6.75786 19.786 7.0642 20.8925C7.37054 21.9989 7.91412 23.0254 8.65718 23.9006C8.21279 24.2649 6.55908 25.66 4.14044 27.5031C1.04428 24.0427 1.26283 17.8831 1.32476 16.8305Z" fill="#525252" stroke="#525252" stroke-width="0.4"/>
<path d="M26.819 31.2003L22.0837 25.6454L21.9671 25.7729C21.9489 25.7948 19.9127 27.9585 15.9496 27.871C14.7482 27.8156 13.5702 27.519 12.4858 26.999C11.4013 26.479 10.4326 25.7461 9.63711 24.8441L9.5424 24.713L4.16602 29.2151L4.27165 29.3317C4.32264 29.3863 9.31656 34.7955 15.7566 34.8319H15.8986C19.7787 34.8006 23.5535 33.566 26.7024 31.2987L26.819 31.2003ZM15.8913 34.5296H15.7566C9.96858 34.4822 5.35713 30.0165 4.59948 29.2406L9.50233 25.1391C10.3261 26.0457 11.3212 26.7803 12.4303 27.3004C13.5394 27.8205 14.7404 28.116 15.9642 28.1697C19.5776 28.2681 21.5956 26.5706 22.0909 26.0935L26.3891 31.153C23.315 33.3177 19.6547 34.4955 15.895 34.5296H15.8913Z" fill="#525252" stroke="#525252" stroke-width="0.4"/>
</svg>
