<svg width="31" height="39" viewBox="0 0 31 39" fill="none" xmlns="http://www.w3.org/2000/svg">
<path d="M6 8L15 1L24 8V19C24 19.5304 23.7893 20.0391 23.4142 20.4142C23.0391 20.7893 22.5304 21 22 21H8C7.46957 21 6.96086 20.7893 6.58579 20.4142C6.21071 20.0391 6 19.5304 6 19V8Z" stroke="#979797" stroke-width="1.4" stroke-linecap="round" stroke-linejoin="round"/>
<path d="M12 21V11H18V21" stroke="#979797" stroke-width="1.4" stroke-linecap="round" stroke-linejoin="round"/>
<path d="M2.24805 35H1.12305V26.4688H2.24805V35ZM5.56602 28.6602L5.60117 29.457C6.08555 28.8477 6.71836 28.543 7.49961 28.543C8.83945 28.543 9.51523 29.2988 9.52695 30.8105V35H8.44297V30.8047C8.43906 30.3477 8.33359 30.0098 8.12656 29.791C7.92344 29.5723 7.60508 29.4629 7.17148 29.4629C6.81992 29.4629 6.51133 29.5566 6.2457 29.7441C5.98008 29.9316 5.77305 30.1777 5.62461 30.4824V35H4.54063V28.6602H5.56602ZM12.7395 35H11.6496V28.6602H12.7395V35ZM12.7512 26.0059H14.0637L12.4934 27.7285H11.6203L12.7512 26.0059ZM17.4695 34.2324C17.8562 34.2324 18.1941 34.1152 18.4832 33.8809C18.7723 33.6465 18.9324 33.3535 18.9637 33.002H19.9891C19.9695 33.3652 19.8445 33.7109 19.6141 34.0391C19.3836 34.3672 19.075 34.6289 18.6883 34.8242C18.3055 35.0195 17.8992 35.1172 17.4695 35.1172C16.6062 35.1172 15.9187 34.8301 15.407 34.2559C14.8992 33.6777 14.6453 32.8887 14.6453 31.8887V31.707C14.6453 31.0898 14.7586 30.541 14.9852 30.0605C15.2117 29.5801 15.5359 29.207 15.9578 28.9414C16.3836 28.6758 16.8855 28.543 17.4637 28.543C18.1746 28.543 18.7645 28.7559 19.2332 29.1816C19.7059 29.6074 19.9578 30.1602 19.9891 30.8398H18.9637C18.9324 30.4297 18.7762 30.0938 18.4949 29.832C18.2176 29.5664 17.8738 29.4336 17.4637 29.4336C16.9129 29.4336 16.4852 29.6328 16.1805 30.0312C15.8797 30.4258 15.7293 30.998 15.7293 31.748V31.9531C15.7293 32.6836 15.8797 33.2461 16.1805 33.6406C16.4812 34.0352 16.9109 34.2324 17.4695 34.2324ZM22.7855 35H21.7016V28.6602H22.7855V35ZM21.6137 26.9785C21.6137 26.8027 21.6664 26.6543 21.7719 26.5332C21.8813 26.4121 22.0414 26.3516 22.2523 26.3516C22.4633 26.3516 22.6234 26.4121 22.7328 26.5332C22.8422 26.6543 22.8969 26.8027 22.8969 26.9785C22.8969 27.1543 22.8422 27.3008 22.7328 27.418C22.6234 27.5352 22.4633 27.5938 22.2523 27.5938C22.0414 27.5938 21.8813 27.5352 21.7719 27.418C21.6664 27.3008 21.6137 27.1543 21.6137 26.9785ZM24.6387 31.7715C24.6387 31.1504 24.7598 30.5918 25.002 30.0957C25.248 29.5996 25.5879 29.2168 26.0215 28.9473C26.459 28.6777 26.957 28.543 27.5156 28.543C28.3789 28.543 29.0762 28.8418 29.6074 29.4395C30.1426 30.0371 30.4102 30.832 30.4102 31.8242V31.9004C30.4102 32.5176 30.291 33.0723 30.0527 33.5645C29.8184 34.0527 29.4805 34.4336 29.0391 34.707C28.6016 34.9805 28.0977 35.1172 27.5273 35.1172C26.668 35.1172 25.9707 34.8184 25.4355 34.2207C24.9043 33.623 24.6387 32.832 24.6387 31.8477V31.7715ZM25.7285 31.9004C25.7285 32.6035 25.8906 33.168 26.2148 33.5938C26.543 34.0195 26.9805 34.2324 27.5273 34.2324C28.0781 34.2324 28.5156 34.0176 28.8398 33.5879C29.1641 33.1543 29.3262 32.5488 29.3262 31.7715C29.3262 31.0762 29.1602 30.5137 28.8281 30.084C28.5 29.6504 28.0625 29.4336 27.5156 29.4336C26.9805 29.4336 26.5488 29.6465 26.2207 30.0723C25.8926 30.498 25.7285 31.1074 25.7285 31.9004Z" fill="#979797"/>
</svg>
