<svg width="49" height="44" viewBox="0 0 49 44" fill="none" xmlns="http://www.w3.org/2000/svg">
<path d="M46.3062 19.2442C46.0283 19.2481 45.7526 19.2958 45.489 19.3858L37.1784 4.75763C37.4857 4.45996 37.7199 4.09287 37.8623 3.68598C38.0047 3.27909 38.0512 2.8438 37.9981 2.41523C37.9449 1.98667 37.7937 1.57683 37.5564 1.21879C37.3192 0.860746 37.0027 0.564535 36.6325 0.354054C36.2622 0.143574 35.8486 0.0247209 35.425 0.00708537C35.0014 -0.0105502 34.5796 0.0735258 34.1937 0.252529C33.8078 0.431533 33.4687 0.70045 33.2036 1.03758C32.9385 1.37471 32.7549 1.77061 32.6676 2.19333H16.2426C16.1553 1.76691 15.9701 1.36764 15.7021 1.02826C15.4341 0.688887 15.0909 0.419073 14.7008 0.240948C14.3106 0.062824 13.8846 -0.0185359 13.4576 0.00354257C13.0306 0.025621 12.6148 0.150508 12.2444 0.367962C11.8739 0.585415 11.5594 0.889241 11.3265 1.25452C11.0935 1.6198 10.9489 2.03612 10.9045 2.46935C10.8601 2.90258 10.9171 3.34037 11.0708 3.74682C11.2246 4.15327 11.4707 4.51679 11.789 4.80758L3.53561 19.3774C3.12982 19.244 2.69882 19.2102 2.27776 19.2788C1.85671 19.3474 1.45754 19.5164 1.11282 19.7721C0.768103 20.0278 0.487601 20.3629 0.294206 20.7501C0.100811 21.1373 0 21.5656 0 22C0 22.4344 0.100811 22.8627 0.294206 23.2499C0.487601 23.6371 0.768103 23.9722 1.11282 24.2279C1.45754 24.4836 1.85671 24.6526 2.27776 24.7212C2.69882 24.7898 3.12982 24.756 3.53561 24.6226L11.789 39.1924C11.4707 39.4832 11.2246 39.8467 11.0708 40.2532C10.9171 40.6596 10.8601 41.0974 10.9045 41.5306C10.9489 41.9639 11.0935 42.3802 11.3265 42.7455C11.5594 43.1108 11.8739 43.4146 12.2444 43.632C12.6148 43.8495 13.0306 43.9744 13.4576 43.9965C13.8846 44.0185 14.3106 43.9372 14.7008 43.7591C15.0909 43.5809 15.4341 43.3111 15.7021 42.9717C15.9701 42.6324 16.1553 42.2331 16.2426 41.8067H32.6676C32.7549 42.2294 32.9385 42.6253 33.2036 42.9624C33.4687 43.2995 33.8078 43.5685 34.1937 43.7475C34.5796 43.9265 35.0014 44.0105 35.425 43.9929C35.8486 43.9753 36.2622 43.8564 36.6325 43.6459C37.0027 43.4355 37.3192 43.1393 37.5564 42.7812C37.7937 42.4232 37.9449 42.0133 37.9981 41.5848C38.0512 41.1562 38.0047 40.7209 37.8623 40.314C37.7199 39.9071 37.4857 39.54 37.1784 39.2424L45.4645 24.6226C45.8369 24.745 46.231 24.7837 46.6195 24.7359C47.008 24.6881 47.3817 24.5549 47.7148 24.3457C48.0479 24.1364 48.3325 23.856 48.5488 23.5238C48.7652 23.1916 48.9083 22.8155 48.9682 22.4215C49.028 22.0275 49.0033 21.625 48.8956 21.2417C48.7879 20.8584 48.5999 20.5034 48.3445 20.2013C48.0891 19.8993 47.7724 19.6573 47.4162 19.492C47.0601 19.3268 46.673 19.2422 46.2817 19.2442H46.3062ZM44.5002 19.9519C44.0814 20.3458 43.7954 20.8645 43.6831 21.4339H35.4215C35.3313 19.6695 34.8309 17.9522 33.9614 16.4236C33.0918 14.895 31.8782 13.5989 30.4204 12.642L34.5553 5.40702C35.0918 5.56533 35.6635 5.54786 36.1896 5.35707L44.5002 19.9519ZM18.9065 29.7595V26.9954C18.9109 25.9295 19.3295 24.9089 20.0707 24.1568C20.812 23.4047 21.8155 22.9824 22.8616 22.9824H26.1303C27.1764 22.9824 28.18 23.4047 28.9212 24.1568C29.6625 24.9089 30.0811 25.9295 30.0854 26.9954V29.7428C28.4669 30.9566 26.5098 31.6114 24.5001 31.6114C22.4903 31.6114 20.5332 30.9566 18.9147 29.7428L18.9065 29.7595ZM24.496 21.4339C23.8188 21.4339 23.1568 21.2293 22.5937 20.8459C22.0307 20.4626 21.5918 19.9178 21.3327 19.2804C21.0735 18.643 21.0057 17.9416 21.1378 17.2649C21.2699 16.5882 21.596 15.9666 22.0749 15.4787C22.5537 14.9909 23.1638 14.6586 23.828 14.524C24.4922 14.3894 25.1806 14.4585 25.8063 14.7225C26.4319 14.9866 26.9666 15.4337 27.3429 16.0073C27.7191 16.581 27.9199 17.2555 27.9199 17.9454C27.9242 18.4063 27.8388 18.8635 27.6687 19.2906C27.4986 19.7177 27.2471 20.1062 26.9287 20.4337C26.6103 20.7611 26.2314 21.0211 25.8138 21.1985C25.3963 21.3759 24.9484 21.4672 24.496 21.4672V21.4339ZM27.7646 21.6836C28.5048 21.0092 29.0264 20.1216 29.2606 19.1385C29.4949 18.1554 29.4305 17.1229 29.0762 16.1778C28.7219 15.2327 28.0943 14.4195 27.2764 13.8458C26.4585 13.2721 25.489 12.9649 24.496 12.9649C23.503 12.9649 22.5334 13.2721 21.7155 13.8458C20.8977 14.4195 20.27 15.2327 19.9157 16.1778C19.5614 17.1229 19.4971 18.1554 19.7313 19.1385C19.9655 20.1216 20.4872 21.0092 21.2273 21.6836C20.1199 22.0402 19.1533 22.7478 18.4683 23.7033C17.7833 24.6587 17.4158 25.8122 17.4193 26.9954V28.3608C16.2115 26.9718 15.4231 25.257 15.149 23.4225C14.8749 21.5879 15.1267 19.7118 15.8742 18.0196C16.6217 16.3274 17.833 14.8912 19.3625 13.8836C20.892 12.8761 22.6746 12.3401 24.496 12.3401C26.3173 12.3401 28.0999 12.8761 29.6294 13.8836C31.1589 14.8912 32.3702 16.3274 33.1177 18.0196C33.8652 19.7118 34.117 21.5879 33.8429 23.4225C33.5688 25.257 32.7805 26.9718 31.5726 28.3608V26.9954C31.5692 25.8179 31.1984 24.6719 30.514 23.7231C29.8295 22.7743 28.8667 22.0718 27.7646 21.7169V21.6836ZM35.3316 1.10268C35.6468 1.10268 35.9549 1.19789 36.2169 1.37628C36.479 1.55468 36.6832 1.80823 36.8038 2.10489C36.9244 2.40154 36.956 2.72798 36.8945 3.0429C36.833 3.35783 36.6812 3.64711 36.4584 3.87416C36.2355 4.10121 35.9516 4.25583 35.6425 4.31848C35.3334 4.38112 35.013 4.34897 34.7218 4.22609C34.4306 4.10321 34.1818 3.89512 34.0067 3.62814C33.8316 3.36116 33.7381 3.04727 33.7381 2.72617C33.7466 2.30426 33.916 1.90229 34.2104 1.60545C34.5048 1.3086 34.9011 1.14022 35.3153 1.13598L35.3316 1.10268ZM16.2426 3.32562H32.6676C32.7933 3.9276 33.1125 4.46964 33.5747 4.86586L29.4889 12.0675C27.95 11.2639 26.2456 10.8448 24.5164 10.8448C22.7872 10.8448 21.0828 11.2639 19.5439 12.0675L15.3682 4.84921C15.8152 4.45234 16.1224 3.91719 16.2426 3.32562ZM13.5949 1.13598C13.9101 1.13598 14.2182 1.2312 14.4802 1.40959C14.7423 1.58798 14.9465 1.84153 15.0671 2.13819C15.1877 2.43485 15.2193 2.76128 15.1578 3.0762C15.0963 3.39113 14.9446 3.68041 14.7217 3.90746C14.4989 4.13451 14.2149 4.28914 13.9058 4.35178C13.5967 4.41442 13.2763 4.38227 12.9852 4.25939C12.694 4.13651 12.4451 3.92843 12.27 3.66144C12.0949 3.39446 12.0015 3.08057 12.0015 2.75948C12.0015 2.3289 12.1694 1.91595 12.4682 1.61149C12.767 1.30702 13.1723 1.13598 13.5949 1.13598ZM12.7778 5.37372C13.3092 5.54763 13.8807 5.54763 14.4121 5.37372L18.6042 12.6253C17.1547 13.5843 15.9487 14.8795 15.0851 16.4047C14.2216 17.93 13.7249 19.642 13.6358 21.4006H5.34155C5.22923 20.8312 4.94324 20.3125 4.52438 19.9186L12.7778 5.37372ZM1.10045 22C1.10045 21.6789 1.19391 21.365 1.369 21.098C1.54409 20.831 1.79296 20.623 2.08413 20.5001C2.3753 20.3772 2.69569 20.3451 3.0048 20.4077C3.3139 20.4703 3.59783 20.625 3.82069 20.852C4.04354 21.0791 4.1953 21.3683 4.25679 21.6833C4.31827 21.9982 4.28671 22.3246 4.16611 22.6213C4.0455 22.9179 3.84126 23.1715 3.57922 23.3499C3.31717 23.5283 3.00909 23.6235 2.69393 23.6235C2.27131 23.6235 1.866 23.4524 1.56717 23.148C1.26833 22.8435 1.10045 22.4306 1.10045 22ZM4.49987 24.0481C4.91872 23.6542 5.20472 23.1355 5.31704 22.5661H13.5704C13.6598 24.3101 14.15 26.0083 15.0017 27.5239C15.8533 29.0394 17.0425 30.3299 18.4734 31.2914L14.3059 38.5763C13.8024 38.4204 13.2649 38.4204 12.7614 38.5763L4.49987 24.0481ZM13.5949 42.864C13.2798 42.864 12.9717 42.7688 12.7097 42.5904C12.4476 42.412 12.2434 42.1585 12.1228 41.8618C12.0022 41.5652 11.9706 41.2387 12.0321 40.9238C12.0936 40.6089 12.2453 40.3196 12.4682 40.0925C12.691 39.8655 12.975 39.7109 13.2841 39.6482C13.5932 39.5856 13.9136 39.6177 14.2047 39.7406C14.4959 39.8635 14.7448 40.0716 14.9199 40.3386C15.095 40.6055 15.1884 40.9194 15.1884 41.2405C15.1884 41.4537 15.1472 41.6648 15.0671 41.8618C14.9871 42.0588 14.8697 42.2378 14.7217 42.3885C14.5737 42.5393 14.3981 42.6589 14.2047 42.7404C14.0114 42.822 13.8042 42.864 13.5949 42.864ZM35.3153 42.864C35.0001 42.864 34.692 42.7688 34.43 42.5904C34.1679 42.412 33.9637 42.1585 33.8431 41.8618C33.7225 41.5652 33.6909 41.2387 33.7524 40.9238C33.8139 40.6089 33.9657 40.3196 34.1885 40.0925C34.4114 39.8655 34.6953 39.7109 35.0044 39.6482C35.3135 39.5856 35.6339 39.6177 35.9251 39.7406C36.2162 39.8635 36.4651 40.0716 36.6402 40.3386C36.8153 40.6055 36.9088 40.9194 36.9088 41.2405C36.9088 41.6711 36.7409 42.084 36.442 42.3885C36.1432 42.693 35.7379 42.864 35.3153 42.864ZM36.2223 38.6513C35.7677 38.481 35.276 38.4407 34.8005 38.5347L30.6329 31.3247L29.6686 31.8992L33.7545 38.9843C33.1948 39.3787 32.801 39.973 32.6513 40.6494H16.2426C16.113 40.0297 15.7783 39.4742 15.2947 39.0759L19.4295 31.8492C21.0529 32.7156 22.8639 33.1523 24.6962 33.1193C26.5285 33.0863 28.3232 32.5846 29.9155 31.6603C31.5077 30.736 32.8465 29.4188 33.8086 27.8297C34.7707 26.2406 35.3253 24.4307 35.4215 22.5661H43.6504C43.7627 23.1355 44.0487 23.6542 44.4676 24.0481L36.2223 38.6513ZM46.298 23.6651C45.9846 23.665 45.6782 23.5708 45.4171 23.3941C45.156 23.2175 44.9519 22.9664 44.8301 22.6721C44.7084 22.3779 44.6746 22.0536 44.7328 21.7399C44.7911 21.4262 44.9388 21.1369 45.1576 20.9083C45.3764 20.6796 45.6565 20.5218 45.9628 20.4546C46.2692 20.3873 46.5882 20.4136 46.88 20.5301C47.1718 20.6466 47.4234 20.8482 47.6033 21.1097C47.7832 21.3711 47.8834 21.6808 47.8915 22C47.8915 22.4291 47.7247 22.8408 47.4277 23.1451C47.1306 23.4493 46.7274 23.6213 46.3062 23.6235L46.298 23.6651Z" fill="#F8F8F8"/>
</svg>
