<svg width="52" height="43" viewBox="0 0 52 43" fill="none" xmlns="http://www.w3.org/2000/svg">
<path d="M5.91835 20.2422H8.59028C8.76744 20.2422 8.93734 20.1719 9.06261 20.0466C9.18788 19.9213 9.25826 19.7514 9.25826 19.5742V6.84251C9.25826 6.66535 9.18788 6.49545 9.06261 6.37018C8.93734 6.24491 8.76744 6.17453 8.59028 6.17453H5.91835C5.74119 6.17453 5.57128 6.24491 5.44601 6.37018C5.32074 6.49545 5.25037 6.66535 5.25037 6.84251V19.5742C5.25037 19.7514 5.32074 19.9213 5.44601 20.0466C5.57128 20.1719 5.74119 20.2422 5.91835 20.2422ZM6.58633 7.51049H7.92229V18.9063H6.58633V7.51049Z" fill="#F8F8F8"/>
<path d="M7.24095 29.7743C6.59513 29.7757 5.96412 29.9678 5.42701 30.3264C4.88991 30.685 4.47062 31.1942 4.22174 31.7901C3.97285 32.386 3.90543 33.0422 4.02794 33.6763C4.15045 34.3104 4.45743 34.8942 4.91039 35.3545C5.36335 35.8148 5.94213 36.1312 6.57416 36.2639C7.20619 36.3966 7.86333 36.3398 8.4632 36.1005C9.06306 35.8613 9.57894 35.4503 9.94616 34.919C10.3134 34.3878 10.5156 33.7599 10.5274 33.1142C10.5345 32.6782 10.4547 32.2451 10.2928 31.8401C10.1308 31.4352 9.88982 31.0666 9.58393 30.7557C9.27805 30.4449 8.91335 30.198 8.51109 30.0295C8.10884 29.861 7.67707 29.7743 7.24095 29.7743ZM7.24095 34.9979C6.85426 34.9964 6.47681 34.8796 6.15687 34.6624C5.83692 34.4453 5.58902 34.1376 5.44486 33.7788C5.3007 33.42 5.26683 33.0263 5.34759 32.6482C5.42835 32.27 5.62006 31.9245 5.89821 31.6559C6.17637 31.3873 6.52832 31.2077 6.90906 31.1402C7.28981 31.0726 7.68204 31.1202 8.03561 31.2768C8.38919 31.4333 8.68803 31.6918 8.89392 32.0191C9.09982 32.3464 9.20341 32.7277 9.19145 33.1142C9.18097 33.6246 8.97085 34.1104 8.60619 34.4676C8.24152 34.8248 7.75138 35.0248 7.24095 35.0247V34.9979Z" fill="#F8F8F8"/>
<path d="M19.0375 20.2422H21.7094C21.8866 20.2422 22.0565 20.1719 22.1818 20.0466C22.307 19.9213 22.3774 19.7514 22.3774 19.5742V6.84251C22.3774 6.66535 22.307 6.49545 22.1818 6.37018C22.0565 6.24491 21.8866 6.17453 21.7094 6.17453H19.0375C18.8603 6.17453 18.6904 6.24491 18.5652 6.37018C18.4399 6.49545 18.3695 6.66535 18.3695 6.84251V19.5742C18.3695 19.7514 18.4399 19.9213 18.5652 20.0466C18.6904 20.1719 18.8603 20.2422 19.0375 20.2422ZM19.7055 7.51049H21.0414V18.9063H19.7055V7.51049Z" fill="#F8F8F8"/>
<path d="M20.3733 36.3606C21.0243 36.3646 21.6616 36.1747 22.2043 35.8153C22.747 35.4558 23.1705 34.943 23.4208 34.3421C23.6711 33.7412 23.737 33.0794 23.61 32.441C23.4829 31.8025 23.1688 31.2163 22.7076 30.757C22.2464 30.2976 21.6589 29.9859 21.0199 29.8616C20.381 29.7372 19.7194 29.8057 19.1196 30.0585C18.5197 30.3113 18.0086 30.7368 17.6514 31.281C17.2942 31.8252 17.107 32.4633 17.1136 33.1142C17.124 33.9743 17.4712 34.796 18.0807 35.4029C18.6901 36.0099 19.5132 36.3537 20.3733 36.3606ZM20.3733 31.1103C20.756 31.1065 21.1313 31.2158 21.4521 31.4245C21.773 31.6331 22.0251 31.9318 22.1768 32.2831C22.3286 32.6344 22.3733 33.0227 22.3053 33.3993C22.2374 33.776 22.0597 34.1241 21.7947 34.4002C21.5297 34.6763 21.189 34.868 20.8155 34.9513C20.442 35.0346 20.0522 35.0057 19.6949 34.8684C19.3377 34.7311 19.029 34.4914 18.8074 34.1793C18.5859 33.8673 18.4614 33.4968 18.4495 33.1142C18.4424 32.8559 18.4868 32.5987 18.5799 32.3576C18.6731 32.1165 18.8132 31.8963 18.9922 31.7098C19.1712 31.5234 19.3855 31.3744 19.6226 31.2714C19.8597 31.1685 20.1149 31.1137 20.3733 31.1103Z" fill="#F8F8F8"/>
<path d="M51.4079 37.5096L40.1925 0.47664C40.1673 0.392288 40.1256 0.313754 40.0699 0.245554C40.0143 0.177353 39.9457 0.120832 39.8681 0.0792397C39.7905 0.0376476 39.7054 0.0118052 39.6178 0.00319908C39.5302 -0.00540699 39.4417 0.00339256 39.3575 0.0290921L27.6344 3.57608V2.82126C27.6344 2.6441 27.564 2.47419 27.4388 2.34892C27.3135 2.22365 27.1436 2.15328 26.9664 2.15328H0.667982C0.490822 2.15328 0.320918 2.22365 0.195648 2.34892C0.0703766 2.47419 0 2.6441 0 2.82126V41.5108C0 41.6879 0.0703766 41.8578 0.195648 41.9831C0.320918 42.1084 0.490822 42.1788 0.667982 42.1788H26.9664C27.1436 42.1788 27.3135 42.1084 27.4388 41.9831C27.564 41.8578 27.6344 41.6879 27.6344 41.5108V8.99341L37.5406 41.7245C37.5658 41.8089 37.6075 41.8874 37.6631 41.9556C37.7188 42.0238 37.7874 42.0803 37.865 42.1219C37.9426 42.1635 38.0277 42.1894 38.1153 42.198C38.2029 42.2066 38.2914 42.1978 38.3756 42.1721L50.9604 38.3646C51.047 38.3395 51.1276 38.2972 51.1975 38.2402C51.2673 38.1831 51.3249 38.1125 51.3667 38.0326C51.4085 37.9527 51.4337 37.8652 51.4408 37.7753C51.4479 37.6854 51.4367 37.595 51.4079 37.5096ZM1.30924 3.48924H13.1526V40.8428H1.33596L1.30924 3.48924ZM26.2985 40.8428H14.4885V3.48924H26.2985V40.8428ZM38.6227 40.6758L27.8014 4.9254L39.077 1.49865L49.9317 37.2557L38.6227 40.6758Z" fill="#F8F8F8"/>
<path d="M36.0176 5.45311C35.8622 5.36879 35.6796 5.34957 35.51 5.39967L32.9716 6.16785C32.8873 6.19307 32.8087 6.23472 32.7405 6.29039C32.6723 6.34607 32.6158 6.41468 32.5742 6.49228C32.5326 6.56988 32.5068 6.65493 32.4982 6.74255C32.4896 6.83017 32.4984 6.91862 32.5241 7.00283L36.2047 19.1868C36.2299 19.2712 36.2715 19.3497 36.3272 19.4179C36.3829 19.4861 36.4515 19.5426 36.5291 19.5842C36.6067 19.6258 36.6917 19.6517 36.7794 19.6603C36.867 19.6689 36.9554 19.6601 37.0396 19.6344L39.578 18.8662C39.6623 18.841 39.7409 18.7993 39.8091 18.7436C39.8773 18.688 39.9338 18.6194 39.9754 18.5418C40.017 18.4642 40.0428 18.3791 40.0514 18.2915C40.06 18.2039 40.0512 18.1154 40.0255 18.0312L36.3383 5.84722C36.2875 5.67875 36.1722 5.53712 36.0176 5.45311ZM37.2935 18.1448L33.9936 7.25666L35.2561 6.87591L38.556 17.7507L37.2935 18.1448Z" fill="#F8F8F8"/>
<path d="M39.137 29.9881C38.7783 30.6567 38.6625 31.429 38.8093 32.1734C38.9562 32.9178 39.3566 33.5883 39.9424 34.0706C40.5281 34.5528 41.263 34.8171 42.0217 34.8184C42.7805 34.8196 43.5162 34.5578 44.1035 34.0774C44.6909 33.597 45.0935 32.9279 45.2428 32.184C45.3921 31.44 45.2788 30.6674 44.9223 29.9976C44.5658 29.3278 43.9881 28.8023 43.2877 28.5107C42.5872 28.2191 41.8073 28.1794 41.0808 28.3983C40.6678 28.5216 40.2833 28.7256 39.9496 28.9985C39.616 29.2714 39.3398 29.6077 39.137 29.9881ZM40.3126 30.616C40.5251 30.2197 40.8683 29.9094 41.2839 29.7378C41.6994 29.5662 42.1616 29.544 42.5918 29.6749C43.0219 29.8058 43.3933 30.0818 43.6428 30.4558C43.8923 30.8298 44.0044 31.2788 43.9601 31.7262C43.9158 32.1736 43.7177 32.5918 43.3996 32.9096C43.0816 33.2274 42.6632 33.4251 42.2158 33.469C41.7683 33.513 41.3195 33.4004 40.9457 33.1506C40.5719 32.9008 40.2962 32.5291 40.1657 32.0989C40.0916 31.8553 40.0664 31.5995 40.0917 31.3461C40.1169 31.0927 40.192 30.8469 40.3126 30.6227V30.616Z" fill="#F8F8F8"/>
</svg>
