<?xml version="1.0" encoding="utf-8"?>
<!-- Generator: Adobe Illustrator 24.0.2, SVG Export Plug-In . SVG Version: 6.00 Build 0)  -->
<svg version="1.1" id="Camada_1" xmlns="http://www.w3.org/2000/svg" xmlns:xlink="http://www.w3.org/1999/xlink" x="0px" y="0px"
	 viewBox="0 0 86 86" style="enable-background:new 0 0 86 86;" xml:space="preserve">
<style type="text/css">
	.st0{fill:#525252;}
	.st1{fill:#525252;stroke:#525252;stroke-miterlimit:10;}
</style>
<g>
	<path class="st0" d="M80,3.5c1.4,0,2.5,1.1,2.5,2.5v74c0,1.4-1.1,2.5-2.5,2.5H6c-1.4,0-2.5-1.1-2.5-2.5V6c0-1.4,1.1-2.5,2.5-2.5H80
		 M80,0.5H6C3,0.5,0.5,3,0.5,6v74c0,3,2.5,5.5,5.5,5.5h74c3,0,5.5-2.5,5.5-5.5V6C85.5,3,83,0.5,80,0.5L80,0.5z"/>
</g>
<path class="st1" d="M23.6,64.8c-0.8,0-1.7-0.2-2.4-0.8c-1-0.7-1.3-1.7-1.1-2.7c0.6-3.4,7.6-7.8,13.8-10.8c1.1-1.9,2-3.9,3.1-6.2
	c1.4-3.2,2.6-6.3,3.6-9.3c-2.3-6.2-3-13.1-1.4-16.2c0.8-1.8,2.1-2,2.9-2c1.1,0,1.9,0.5,2.5,1.4c1.8,2.9,0.7,9.9-1.4,16.8
	c1,2.4,2.1,4.5,3.6,6.3c1.3,1.5,2.9,3,4.4,4.2c6.9-1.1,13.7-1.1,16,1.3c0.8,0.8,1.2,2,0.7,3.3c-0.4,1.1-1.2,2.4-3.3,2.7
	c-3.6,0.7-9.3-1.4-14.1-4.9c-3,0.5-6.2,1.3-9.4,2.3c-1.7,0.6-3.4,1.3-5.3,2.1c-3,5.5-7,11.4-10.9,12.4C24.3,64.7,24,64.8,23.6,64.8z
	 M31.7,54.2c-4.9,2.6-8.9,5.7-9.3,7.4c0,0.1,0,0.2,0.2,0.5c0.5,0.4,0.8,0.4,1.4,0.2C26.1,61.8,28.7,58.9,31.7,54.2z M53.9,47.4
	c3.8,2.3,7.8,3.4,10,3c1.1-0.2,1.4-0.8,1.5-1.2c0.1-0.5,0-0.7-0.1-0.8C64,47.1,59.6,46.8,53.9,47.4z M41.8,38.3
	c-0.8,2.5-1.8,4.9-2.7,6.9c-0.5,1-1.1,2.3-1.8,3.7c1.1-0.5,2-0.8,2.9-1.1c2.3-0.7,4.9-1.4,7.6-1.9c-1.2-1-2.3-2-3.2-3.2
	C43.6,41.4,42.6,40,41.8,38.3z M41.8,19.2c-0.1,0-0.4,0-0.7,0.7c-1,1.9-0.7,6.3,0.5,10.9c1.4-5.6,1.7-9.9,0.7-11.3
	C42.2,19.3,42,19.2,41.8,19.2z"/>
</svg>
