<svg width="67" height="67" viewBox="0 0 67 67" fill="none" xmlns="http://www.w3.org/2000/svg">
<rect x="0.5" y="0.5" width="66" height="66" rx="5.5" stroke="white"/>
<path d="M18.4088 50.4979C17.7607 50.4979 17.1127 50.3128 16.5572 49.8499C15.8166 49.2944 15.5388 48.5538 15.724 47.7206C16.1869 45.0358 21.649 41.6105 26.463 39.296C27.2962 37.8148 28.0368 36.241 28.87 34.482C29.981 31.9824 30.9067 29.5754 31.6474 27.2609C29.8884 22.4469 29.3329 17.0774 30.5364 14.6704C31.1845 13.2817 32.2028 13.0966 32.7583 13.0966C33.5915 13.0966 34.2395 13.4669 34.7024 14.2075C36.0911 16.4294 35.2579 21.8914 33.5915 27.2609C34.3321 29.1125 35.2579 30.7789 36.3688 32.1676C37.3872 33.3711 38.5907 34.482 39.7942 35.4078C45.1637 34.5746 50.4406 34.5746 52.2922 36.4261C52.9402 37.0742 53.218 37.9999 52.8476 39.0183C52.5699 39.8515 51.9219 40.8699 50.2555 41.1476C47.4781 41.7031 43.0344 40.0367 39.2387 37.3519C36.9243 37.7222 34.4247 38.3703 31.9251 39.1109C30.629 39.5738 29.2403 40.1292 27.7591 40.7773C25.4447 45.0358 22.297 49.6647 19.242 50.4053C18.9642 50.4053 18.6865 50.4979 18.4088 50.4979ZM24.704 42.2585C20.9084 44.2952 17.7607 46.7022 17.483 47.9983C17.483 48.0909 17.483 48.1835 17.6681 48.3686C18.0384 48.6464 18.3162 48.6464 18.7791 48.5538C20.3529 48.1835 22.3896 45.869 24.704 42.2585ZM42.0161 36.889C44.9785 38.648 48.1262 39.5738 49.7926 39.2035C50.6258 39.0183 50.9035 38.5554 50.9961 38.2777C51.0887 37.9074 50.9961 37.7222 50.9035 37.6296C49.8852 36.7039 46.4598 36.4261 42.0161 36.889ZM32.5731 29.8531C31.9251 31.7972 31.1845 33.6488 30.4438 35.2226C30.0735 35.9632 29.6107 36.9816 29.0552 38.0925C29.8884 37.7222 30.629 37.4445 31.277 37.2593C33.036 36.7039 35.0727 36.1484 37.202 35.7781C36.2762 35.0375 35.443 34.2043 34.7024 33.2785C33.9618 32.2601 33.2212 31.1492 32.5731 29.8531ZM32.5731 14.9481C32.4806 14.9481 32.2954 14.9481 32.0177 15.5036C31.277 16.9848 31.4622 20.4102 32.388 24.0207C33.4989 19.6696 33.6841 16.3368 32.9434 15.2258C32.8509 15.0407 32.7583 14.9481 32.5731 14.9481Z" fill="white"/>
</svg>
