<?xml version="1.0" encoding="utf-8"?>
<!-- Generator: Adobe Illustrator 24.0.2, SVG Export Plug-In . SVG Version: 6.00 Build 0)  -->
<svg version="1.1" id="Camada_1" xmlns="http://www.w3.org/2000/svg" xmlns:xlink="http://www.w3.org/1999/xlink" x="0px" y="0px"
	 viewBox="0 0 21 30" style="enable-background:new 0 0 21 30;" xml:space="preserve">
<style type="text/css">
	.st0{fill:#525252;stroke:#525252;stroke-width:0.3;}
</style>
<path class="st0" d="M10.5,21.2c2.7,0,4.9-2.2,4.9-4.9V5.9c0-2.7-2.2-4.9-4.9-4.9C7.8,1,5.6,3.2,5.6,5.9v10.4
	C5.6,19,7.8,21.2,10.5,21.2z M6.2,5.9c0-2.4,1.9-4.3,4.3-4.3c2.4,0,4.3,1.9,4.3,4.3v10.4c0,2.4-1.9,4.3-4.3,4.3
	c-2.4,0-4.3-1.9-4.3-4.3V5.9z"/>
<path class="st0" d="M20,16.3c0-0.2-0.1-0.3-0.3-0.3c-0.2,0-0.3,0.1-0.3,0.3c0,4.9-4,8.9-8.9,8.9s-8.9-4-8.9-8.9
	c0-0.2-0.1-0.3-0.3-0.3S1,16.1,1,16.3c0,5.1,4.1,9.3,9.2,9.5v2.9H5.9c-0.2,0-0.3,0.1-0.3,0.3c0,0.2,0.1,0.3,0.3,0.3h9.2
	c0.2,0,0.3-0.1,0.3-0.3c0-0.2-0.1-0.3-0.3-0.3h-4.3v-2.9C15.9,25.6,20,21.4,20,16.3z"/>
<path class="st0" d="M10.5,5c0.5,0,0.9,0.4,0.9,0.9c0,0.2,0.1,0.3,0.3,0.3c0.2,0,0.3-0.1,0.3-0.3c0-0.8-0.6-1.4-1.4-1.4
	c-0.2,0-0.3,0.1-0.3,0.3C10.2,4.9,10.3,5,10.5,5z"/>
</svg>
