<svg width="47" height="69" viewBox="0 0 47 69" fill="none" xmlns="http://www.w3.org/2000/svg">
<path d="M23.5612 48.8571C29.9699 48.8571 35.1836 43.6434 35.1836 37.2347V12.6224C35.1836 6.21369 29.9699 1 23.5612 1C17.1524 1 11.9387 6.21369 11.9387 12.6224V37.2347C11.9387 43.6434 17.1524 48.8571 23.5612 48.8571ZM13.3061 12.6224C13.3061 6.9671 17.9058 2.36735 23.5612 2.36735C29.2165 2.36735 33.8163 6.9671 33.8163 12.6224V37.2347C33.8163 42.89 29.2165 47.4898 23.5612 47.4898C17.9058 47.4898 13.3061 42.89 13.3061 37.2347V12.6224Z" fill="white" stroke="white" stroke-width="0.3"/>
<path d="M46.1225 37.2348C46.1225 36.8574 45.8162 36.5511 45.4388 36.5511C45.0614 36.5511 44.7551 36.8574 44.7551 37.2348C44.7551 48.9215 35.2479 58.4287 23.5612 58.4287C11.8745 58.4287 2.36735 48.9215 2.36735 37.2348C2.36735 36.8574 2.06106 36.5511 1.68367 36.5511C1.30629 36.5511 1 36.8574 1 37.2348C1 49.4439 10.7547 59.3954 22.8776 59.7619V66.6328H12.6224C12.2451 66.6328 11.9388 66.9391 11.9388 67.3165C11.9388 67.6938 12.2451 68.0001 12.6224 68.0001H34.5C34.8774 68.0001 35.1837 67.6938 35.1837 67.3165C35.1837 66.9391 34.8774 66.6328 34.5 66.6328H24.2449V59.7619C36.3664 59.3954 46.1225 49.4439 46.1225 37.2348Z" fill="white" stroke="white" stroke-width="0.3"/>
<path d="M23.5614 10.5713C24.6922 10.5713 25.6124 11.4916 25.6124 12.6223C25.6124 12.9997 25.9187 13.306 26.2961 13.306C26.6734 13.306 26.9797 12.9997 26.9797 12.6223C26.9797 10.7381 25.4469 9.20398 23.5614 9.20398C23.184 9.20398 22.8777 9.51027 22.8777 9.88765C22.8777 10.265 23.184 10.5713 23.5614 10.5713Z" fill="white" stroke="white" stroke-width="0.3"/>
</svg>
