<svg width="33" height="39" viewBox="0 0 33 39" fill="none" xmlns="http://www.w3.org/2000/svg">
<path d="M3.69414 31.1973C2.7293 30.9199 2.02617 30.5801 1.58477 30.1777C1.14727 29.7715 0.928516 29.2715 0.928516 28.6777C0.928516 28.0059 1.19609 27.4512 1.73125 27.0137C2.27031 26.5723 2.96953 26.3516 3.82891 26.3516C4.41484 26.3516 4.93633 26.4648 5.39336 26.6914C5.8543 26.918 6.20977 27.2305 6.45977 27.6289C6.71367 28.0273 6.84063 28.4629 6.84063 28.9355H5.70977C5.70977 28.4199 5.5457 28.0156 5.21758 27.7227C4.88945 27.4258 4.42656 27.2773 3.82891 27.2773C3.27422 27.2773 2.84063 27.4004 2.52813 27.6465C2.21953 27.8887 2.06524 28.2266 2.06524 28.6602C2.06524 29.0078 2.21172 29.3027 2.50469 29.5449C2.80156 29.7832 3.30352 30.002 4.01055 30.2012C4.72149 30.4004 5.27617 30.6211 5.67461 30.8633C6.07695 31.1016 6.37383 31.3809 6.56524 31.7012C6.76055 32.0215 6.8582 32.3984 6.8582 32.832C6.8582 33.5234 6.58867 34.0781 6.04961 34.4961C5.51055 34.9102 4.78984 35.1172 3.8875 35.1172C3.30156 35.1172 2.75469 35.0059 2.24688 34.7832C1.73906 34.5566 1.34649 34.248 1.06914 33.8574C0.795704 33.4668 0.658985 33.0234 0.658985 32.5273H1.78984C1.78984 33.043 1.9793 33.4512 2.3582 33.752C2.74102 34.0488 3.25078 34.1973 3.8875 34.1973C4.48125 34.1973 4.93633 34.0762 5.25274 33.834C5.56914 33.5918 5.72734 33.2617 5.72734 32.8438C5.72734 32.4258 5.58086 32.1035 5.28789 31.877C4.99492 31.6465 4.46367 31.4199 3.69414 31.1973ZM8.24844 31.7715C8.24844 31.1504 8.36953 30.5918 8.61172 30.0957C8.85781 29.5996 9.19766 29.2168 9.63125 28.9473C10.0688 28.6777 10.5668 28.543 11.1254 28.543C11.9887 28.543 12.6859 28.8418 13.2172 29.4395C13.7523 30.0371 14.0199 30.832 14.0199 31.8242V31.9004C14.0199 32.5176 13.9008 33.0723 13.6625 33.5645C13.4281 34.0527 13.0902 34.4336 12.6488 34.707C12.2113 34.9805 11.7074 35.1172 11.1371 35.1172C10.2777 35.1172 9.58047 34.8184 9.04531 34.2207C8.51406 33.623 8.24844 32.832 8.24844 31.8477V31.7715ZM9.33828 31.9004C9.33828 32.6035 9.50039 33.168 9.82461 33.5938C10.1527 34.0195 10.5902 34.2324 11.1371 34.2324C11.6879 34.2324 12.1254 34.0176 12.4496 33.5879C12.7738 33.1543 12.9359 32.5488 12.9359 31.7715C12.9359 31.0762 12.7699 30.5137 12.4379 30.084C12.1098 29.6504 11.6723 29.4336 11.1254 29.4336C10.5902 29.4336 10.1586 29.6465 9.83047 30.0723C9.50234 30.498 9.33828 31.1074 9.33828 31.9004ZM21.1465 31.9004C21.1465 32.8691 20.9238 33.6484 20.4785 34.2383C20.0332 34.8242 19.4355 35.1172 18.6855 35.1172C17.8848 35.1172 17.2656 34.834 16.8281 34.2676L16.7754 35H15.7793V26H16.8633V29.3574C17.3008 28.8145 17.9043 28.543 18.6738 28.543C19.4434 28.543 20.0469 28.834 20.4844 29.416C20.9258 29.998 21.1465 30.7949 21.1465 31.8066V31.9004ZM20.0625 31.7773C20.0625 31.0391 19.9199 30.4688 19.6348 30.0664C19.3496 29.6641 18.9395 29.4629 18.4043 29.4629C17.6895 29.4629 17.1758 29.7949 16.8633 30.459V33.2012C17.1953 33.8652 17.7129 34.1973 18.416 34.1973C18.9355 34.1973 19.3398 33.9961 19.6289 33.5938C19.918 33.1914 20.0625 32.5859 20.0625 31.7773ZM25.982 29.6328C25.818 29.6055 25.6402 29.5918 25.4488 29.5918C24.7379 29.5918 24.2555 29.8945 24.0016 30.5V35H22.9176V28.6602H23.9723L23.9898 29.3926C24.3453 28.8262 24.8492 28.543 25.5016 28.543C25.7125 28.543 25.8727 28.5703 25.982 28.625V29.6328ZM29.8977 35.1172C29.0383 35.1172 28.3391 34.8359 27.8 34.2734C27.2609 33.707 26.9914 32.9512 26.9914 32.0059V31.8066C26.9914 31.1777 27.1105 30.6172 27.3488 30.125C27.591 29.6289 27.927 29.2422 28.3566 28.9648C28.7902 28.6836 29.259 28.543 29.7629 28.543C30.5871 28.543 31.2277 28.8145 31.6848 29.3574C32.1418 29.9004 32.3703 30.6777 32.3703 31.6895V32.1406H28.0754C28.091 32.7656 28.2727 33.2715 28.6203 33.6582C28.9719 34.041 29.4172 34.2324 29.9563 34.2324C30.3391 34.2324 30.6633 34.1543 30.9289 33.998C31.1945 33.8418 31.427 33.6348 31.6262 33.377L32.2883 33.8926C31.757 34.709 30.9602 35.1172 29.8977 35.1172ZM29.7629 29.4336C29.3254 29.4336 28.9582 29.5938 28.6613 29.9141C28.3645 30.2305 28.1809 30.6758 28.1105 31.25H31.2863V31.168C31.2551 30.6172 31.1066 30.1914 30.841 29.8906C30.5754 29.5859 30.216 29.4336 29.7629 29.4336Z" fill="#3153F5"/>
<path d="M16 21C21.5228 21 26 16.5228 26 11C26 5.47715 21.5228 1 16 1C10.4772 1 6 5.47715 6 11C6 16.5228 10.4772 21 16 21Z" stroke="#3153F5" stroke-width="1.5" stroke-linecap="round" stroke-linejoin="round"/>
<path d="M16 7V11" stroke="#3153F5" stroke-width="1.5" stroke-linecap="round" stroke-linejoin="round"/>
<path d="M16 15H16.01" stroke="#3153F5" stroke-width="1.5" stroke-linecap="round" stroke-linejoin="round"/>
</svg>
