<?xml version="1.0" encoding="utf-8"?>
<!-- Generator: Adobe Illustrator 24.0.2, SVG Export Plug-In . SVG Version: 6.00 Build 0)  -->
<svg version="1.1" id="Camada_1" xmlns="http://www.w3.org/2000/svg" xmlns:xlink="http://www.w3.org/1999/xlink" x="0px" y="0px"
	 viewBox="0 0 35 35" style="enable-background:new 0 0 35 35;" xml:space="preserve">
<style type="text/css">
	.st0{fill:#525252;stroke:#525252;stroke-width:0.1;}
</style>
<path class="st0" d="M33.7,0.9H1.3c-0.2,0-0.4,0.2-0.4,0.4v24.2c0,0.2,0.2,0.4,0.4,0.4h32.3c0.2,0,0.4-0.2,0.4-0.4V1.3
	C34,1.1,33.9,0.9,33.7,0.9z M33.3,25.2H1.7V1.7h31.6V25.2z"/>
<path class="st0" d="M13.6,17.8L13.6,17.8l8.1-4l0,0c0.1-0.1,0.2-0.2,0.2-0.3c0-0.1-0.1-0.3-0.2-0.3h0l-8.1-4l0,0
	c-0.1-0.1-0.3-0.1-0.4,0c-0.1,0.1-0.2,0.2-0.2,0.3v8.1c0,0.1,0.1,0.3,0.2,0.3c0.1,0,0.1,0.1,0.2,0.1C13.5,17.9,13.6,17.9,13.6,17.8z
	 M13.8,16.9V10l6.8,3.4L13.8,16.9z"/>
<path class="st0" d="M33.7,31.9H12.5v-1c0-0.2-0.2-0.4-0.4-0.4c-0.2,0-0.4,0.2-0.4,0.4v1H1.3c-0.2,0-0.4,0.2-0.4,0.4
	c0,0.2,0.2,0.4,0.4,0.4h10.4v1c0,0.2,0.2,0.4,0.4,0.4c0.2,0,0.4-0.2,0.4-0.4v-1h21.2c0.2,0,0.4-0.2,0.4-0.4
	C34,32.1,33.9,31.9,33.7,31.9z"/>
</svg>
