<svg width="69" height="69" viewBox="0 0 69 69" fill="none" xmlns="http://www.w3.org/2000/svg">
<path d="M67.3162 0.95H1.68367C1.27867 0.95 0.95 1.27867 0.95 1.68367V50.9081C0.95 51.3131 1.27867 51.6418 1.68367 51.6418H67.3162C67.7213 51.6418 68.0499 51.3131 68.0499 50.9081V1.68367C68.0499 1.27867 67.7213 0.95 67.3162 0.95ZM66.5826 50.1744H2.41735V2.41735H66.5826V50.1744Z" fill="white" stroke="white" stroke-width="0.1"/>
<path d="M26.6245 35.156L26.6242 35.1561C26.5205 35.2072 26.409 35.2337 26.2959 35.2337C26.1625 35.2337 26.0275 35.1971 25.9099 35.1237C25.9099 35.1236 25.9098 35.1236 25.9097 35.1236L25.9362 35.0812C25.7352 34.9567 25.6122 34.7366 25.6122 34.5V18.0919C25.6122 17.8554 25.7352 17.6352 25.9376 17.5108L26.6245 35.156ZM26.6245 35.156L43.0326 26.9519L43.0327 26.9518C43.2806 26.8272 43.4377 26.5734 43.4377 26.296C43.4377 26.0186 43.2806 25.7648 43.0327 25.6401L43.0326 25.64L26.6245 17.436L26.6244 17.4359C26.3973 17.3231 26.1287 17.3332 25.9113 17.4683L26.6245 35.156ZM27.0295 19.279L41.0635 26.296L27.0295 33.313V19.279Z" fill="white" stroke="white" stroke-width="0.1"/>
<path d="M67.3162 63.848H24.2949V61.847C24.2949 61.442 23.9662 61.1133 23.5612 61.1133C23.1562 61.1133 22.8275 61.442 22.8275 61.847V63.848H1.68367C1.27867 63.848 0.95 64.1767 0.95 64.5817C0.95 64.9867 1.27867 65.3154 1.68367 65.3154H22.8275V67.3164C22.8275 67.7214 23.1562 68.0501 23.5612 68.0501C23.9662 68.0501 24.2949 67.7214 24.2949 67.3164V65.3154H67.3162C67.7213 65.3154 68.0499 64.9867 68.0499 64.5817C68.0499 64.1767 67.7213 63.848 67.3162 63.848Z" fill="white" stroke="white" stroke-width="0.1"/>
</svg>
