<svg width="80" height="67" viewBox="0 0 80 67" fill="none" xmlns="http://www.w3.org/2000/svg">
<path d="M5.21529 67C2.34688 67 0 64.6506 0 61.7792V55.95V5.22078C0 2.34935 2.34688 -2.6226e-06 5.21529 -2.6226e-06H74.7525C77.6209 -2.6226e-06 79.9677 2.34935 79.9677 5.22078V55.95V61.7792C79.9677 64.6506 77.6209 67 74.7525 67H5.21529ZM5.21529 65.2597H74.7525C76.6647 65.2597 78.2293 63.6935 78.2293 61.7792V56.8202H1.73843V61.7792C1.73843 63.6935 3.30302 65.2597 5.21529 65.2597ZM5.73648 62.2143C5.04111 62.2143 4.43265 61.6052 4.43265 60.9091C4.43265 60.213 5.04111 59.6039 5.73648 59.6039C6.43185 59.6039 7.0403 60.213 7.0403 60.9091C7.0403 61.6052 6.43185 62.2143 5.73648 62.2143ZM10.4306 62.2143C9.64828 62.2143 9.12675 61.6052 9.12675 60.9091C9.12675 60.213 9.7352 59.6039 10.4306 59.6039C11.1259 59.6039 11.7344 60.213 11.7344 60.9091C11.7344 61.6052 11.2129 62.2143 10.4306 62.2143ZM15.1247 62.2143C14.4293 62.2143 13.8209 61.6052 13.8209 60.9091C13.8209 60.213 14.4293 59.6039 15.1247 59.6039C15.82 59.6039 16.4285 60.213 16.4285 60.9091C16.4285 61.6052 15.82 62.2143 15.1247 62.2143ZM5.73648 61.3442C5.91032 61.3442 6.17108 61.1701 6.17108 60.9091C6.17108 60.6481 5.99724 60.474 5.73648 60.474C5.47571 60.474 5.30187 60.6481 5.30187 60.9091C5.30187 61.1701 5.47571 61.3442 5.73648 61.3442ZM10.4306 61.3442C10.6044 61.3442 10.8652 61.1701 10.8652 60.9091C10.8652 60.6481 10.6913 60.474 10.4306 60.474C10.1698 60.474 9.99597 60.6481 9.99597 60.9091C9.99597 61.1701 10.1698 61.3442 10.4306 61.3442ZM15.1247 61.3442C15.2985 61.3442 15.5593 61.1701 15.5593 60.9091C15.5593 60.6481 15.3854 60.474 15.1247 60.474C14.8639 60.474 14.6901 60.6481 14.6901 60.9091C14.6901 61.1701 14.8639 61.3442 15.1247 61.3442ZM1.73843 55.0799H78.2293V5.22078C78.2293 3.30649 76.6647 1.74026 74.7525 1.74026H5.21529C3.30302 1.74026 1.73843 3.30649 1.73843 5.22078V55.0799ZM39.9839 50.0325C35.7247 50.0325 31.7263 48.7266 28.2495 46.2902C22.7734 42.4617 19.5573 36.1974 19.5573 29.5844C19.5573 18.3069 28.7156 9.1948 39.9686 9.13976C39.9742 9.13968 39.9782 9.13636 39.9839 9.13636L39.9958 9.13806C40.0208 9.13797 40.0454 9.13636 40.0705 9.13636C51.2833 9.13636 60.4104 18.3597 60.4104 29.5844C60.4104 40.8091 51.2837 50.0325 39.9839 50.0325ZM40.8531 48.2718C41.8008 48.2322 42.7298 48.1193 43.6356 47.9421C45.3643 45.4695 46.698 42.7605 47.6285 39.9121C45.4265 39.3714 43.1619 39.0678 40.8531 39.0063V48.2718ZM39.1147 48.2582V39.0063C36.8195 39.0675 34.568 39.3672 32.3782 39.9019C33.3167 42.7315 34.6507 45.4328 36.3508 47.9251C37.2565 48.1016 38.1785 48.2135 39.1147 48.2582ZM46.1634 47.2589C49.1694 46.2095 51.828 44.4109 53.9134 42.084C53.8181 42.0775 53.7215 42.0647 53.6299 42.028C52.2332 41.3717 50.7965 40.8285 49.3313 40.3812C48.5395 42.7795 47.4776 45.0868 46.1634 47.2589ZM33.8433 47.2504C32.5388 45.0602 31.4856 42.7543 30.7009 40.3608C29.2132 40.8115 27.7551 41.362 26.3379 42.028C26.2562 42.0607 26.1699 42.0685 26.0849 42.0772C27.0332 43.1285 28.1054 44.0778 29.2919 44.8984C30.6977 45.9148 32.2312 46.6906 33.8433 47.2504ZM54.7877 41.0236C57.0664 38.0719 58.4978 34.4299 58.672 30.4545H51.012C50.9676 33.269 50.5695 36.0502 49.8338 38.7344C51.3703 39.2069 52.8736 39.7769 54.3259 40.461C54.5748 40.5607 54.7261 40.7773 54.7877 41.0236ZM25.1852 40.993C25.2521 40.7594 25.4031 40.5566 25.6418 40.461C27.115 39.767 28.6405 39.1901 30.2001 38.714C29.4752 36.0472 29.0858 33.2806 29.0423 30.4545H21.2958C21.4703 34.2985 22.8568 37.9827 25.1852 40.993ZM48.1243 38.2585C48.7981 35.7312 49.1531 33.1092 49.1887 30.4545H40.8531V37.266C43.3341 37.3303 45.767 37.6678 48.1243 38.2585ZM31.8757 38.25C34.2229 37.6643 36.645 37.33 39.1147 37.266V30.4545H30.779C30.8161 33.104 31.1869 35.7206 31.8757 38.25ZM21.2958 28.7143H29.0559C29.1585 25.8186 29.6397 23.0027 30.4582 20.2934C28.8759 19.8246 27.3235 19.2451 25.815 18.5344C25.5598 18.4323 25.4093 18.2056 25.3515 17.9515C22.9684 20.9339 21.4737 24.6538 21.2958 28.7143ZM30.7977 28.7143H39.1147V21.6428C36.7508 21.584 34.4296 21.2871 32.1694 20.7489C31.386 23.3124 30.9083 25.9729 30.7977 28.7143ZM40.8531 28.7143H49.1717C49.0651 25.9677 48.6199 23.2975 47.8509 20.737C45.5742 21.2831 43.2352 21.5835 40.8531 21.6428V28.7143ZM50.9968 28.7143H58.672C58.4936 24.6426 57.0052 20.9149 54.6213 17.9294C54.5683 18.1927 54.4153 18.4293 54.1527 18.5344C52.6681 19.2338 51.1404 19.8044 49.5843 20.2696C50.4061 22.9953 50.8924 25.8271 50.9968 28.7143ZM40.8531 19.9042C43.0453 19.8484 45.1983 19.5823 47.3026 19.0936C46.2954 16.3117 44.8974 13.6718 43.1127 11.225C43.0928 11.1984 43.0878 11.1626 43.072 11.1332C42.3458 11.0133 41.6055 10.9329 40.8531 10.8987V19.9042ZM39.1147 19.9025V10.8987C38.3795 10.9326 37.6565 11.0127 36.945 11.1298L36.9416 11.1383C35.1582 13.6222 33.7506 16.2834 32.7246 19.0749C34.8099 19.5638 36.9431 19.8426 39.1147 19.9025ZM49.0393 18.6364C50.5389 18.1947 52.0136 17.6456 53.4567 16.9675C53.55 16.9302 53.6483 16.9159 53.7453 16.9098C51.5718 14.556 48.8024 12.7569 45.666 11.762C47.0594 13.926 48.1783 16.2354 49.0393 18.6364ZM31.0184 18.6262C31.8865 16.2247 33.0173 13.9124 34.4341 11.7264C31.2751 12.7118 28.4707 14.5173 26.2683 16.8877C26.3546 16.8932 26.4503 16.9067 26.511 16.9675C27.9831 17.6291 29.4876 18.1797 31.0184 18.6262Z" fill="white"/>
</svg>
