<svg width="37" height="31" viewBox="0 0 37 31" fill="none" xmlns="http://www.w3.org/2000/svg">
<mask id="path-1-inside-1" fill="white">
<path d="M2.41304 31C1.08587 31 0 29.913 0 28.5844V25.8873V2.41558C0 1.08701 1.08587 0 2.41304 0H34.587C35.9141 0 37 1.08701 37 2.41558V25.8873V28.5844C37 29.913 35.9141 31 34.587 31H2.41304ZM2.41304 30.1948H34.587C35.4717 30.1948 36.1957 29.4701 36.1957 28.5844V26.2899H0.804348V28.5844C0.804348 29.4701 1.52826 30.1948 2.41304 30.1948ZM2.65419 28.7857C2.33245 28.7857 2.05093 28.5039 2.05093 28.1818C2.05093 27.8597 2.33245 27.5779 2.65419 27.5779C2.97593 27.5779 3.25745 27.8597 3.25745 28.1818C3.25745 28.5039 2.97593 28.7857 2.65419 28.7857ZM4.82609 28.7857C4.46413 28.7857 4.22283 28.5039 4.22283 28.1818C4.22283 27.8597 4.50435 27.5779 4.82609 27.5779C5.14783 27.5779 5.42935 27.8597 5.42935 28.1818C5.42935 28.5039 5.18804 28.7857 4.82609 28.7857ZM6.99798 28.7857C6.67624 28.7857 6.39472 28.5039 6.39472 28.1818C6.39472 27.8597 6.67624 27.5779 6.99798 27.5779C7.31972 27.5779 7.60124 27.8597 7.60124 28.1818C7.60124 28.5039 7.31972 28.7857 6.99798 28.7857ZM2.65419 28.3831C2.73463 28.3831 2.85528 28.3026 2.85528 28.1818C2.85528 28.061 2.77484 27.9805 2.65419 27.9805C2.53354 27.9805 2.4531 28.061 2.4531 28.1818C2.4531 28.3026 2.53354 28.3831 2.65419 28.3831ZM4.82609 28.3831C4.90652 28.3831 5.02717 28.3026 5.02717 28.1818C5.02717 28.061 4.94674 27.9805 4.82609 27.9805C4.70543 27.9805 4.625 28.061 4.625 28.1818C4.625 28.3026 4.70543 28.3831 4.82609 28.3831ZM6.99798 28.3831C7.07842 28.3831 7.19907 28.3026 7.19907 28.1818C7.19907 28.061 7.11864 27.9805 6.99798 27.9805C6.87733 27.9805 6.7969 28.061 6.7969 28.1818C6.7969 28.3026 6.87733 28.3831 6.99798 28.3831ZM0.804348 25.4847H36.1957V2.41558C36.1957 1.52987 35.4717 0.805195 34.587 0.805195H2.41304C1.52826 0.805195 0.804348 1.52987 0.804348 2.41558V25.4847ZM18.5 23.1494C16.5293 23.1494 14.6793 22.5451 13.0707 21.4179C10.537 19.6464 9.04891 16.7481 9.04891 13.6883C9.04891 8.47038 13.2863 4.25431 18.4929 4.22885C18.4955 4.22881 18.4974 4.22727 18.5 4.22727L18.5055 4.22806C18.5171 4.22802 18.5285 4.22727 18.5401 4.22727C23.7281 4.22727 27.9511 8.49481 27.9511 13.6883C27.9511 18.8818 23.7283 23.1494 18.5 23.1494ZM18.9022 22.3347C19.3407 22.3164 19.7705 22.2642 20.1896 22.1822C20.9894 21.0381 21.6066 19.7847 22.0371 18.4668C21.0182 18.2166 19.9704 18.0762 18.9022 18.0477V22.3347ZM18.0978 22.3284V18.0477C17.0359 18.076 15.9941 18.2147 14.981 18.4621C15.4152 19.7713 16.0324 21.0211 16.819 22.1743C17.2381 22.2559 17.6647 22.3077 18.0978 22.3284ZM21.3592 21.8661C22.75 21.3805 23.9801 20.5483 24.945 19.4717C24.9009 19.4687 24.8562 19.4627 24.8138 19.4458C24.1676 19.1421 23.5029 18.8908 22.8249 18.6838C22.4586 19.7935 21.9673 20.8611 21.3592 21.8661ZM15.6589 21.8621C15.0553 20.8488 14.568 19.7819 14.2049 18.6744C13.5166 18.883 12.8419 19.1377 12.1862 19.4458C12.1484 19.4609 12.1085 19.4646 12.0691 19.4686C12.5079 19.955 13.004 20.3942 13.5529 20.7739C14.2034 21.2441 14.9129 21.6031 15.6589 21.8621ZM25.3495 18.9811C26.4039 17.6154 27.0661 15.9303 27.1467 14.0909H23.6026C23.582 15.3931 23.3978 16.6799 23.0574 17.9219C23.7683 18.1405 24.4639 18.4042 25.1359 18.7208C25.251 18.7669 25.3211 18.8671 25.3495 18.9811ZM11.6528 18.9669C11.6838 18.8588 11.7537 18.765 11.8641 18.7208C12.5458 18.3997 13.2516 18.1327 13.9732 17.9124C13.6378 16.6786 13.4576 15.3985 13.4375 14.0909H9.85326C9.93402 15.8695 10.5755 17.5741 11.6528 18.9669ZM22.2665 17.7017C22.5782 16.5323 22.7425 15.3192 22.759 14.0909H18.9022V17.2425C20.0501 17.2722 21.1758 17.4284 22.2665 17.7017ZM14.7485 17.6978C15.8345 17.4268 16.9552 17.2721 18.0978 17.2425V14.0909H14.241C14.2582 15.3168 14.4298 16.5274 14.7485 17.6978ZM9.85326 13.2857H13.4438C13.4913 11.9459 13.7139 10.643 14.0926 9.38948C13.3605 9.17257 12.6422 8.90445 11.9443 8.57564C11.8262 8.52836 11.7566 8.42349 11.7298 8.30593C10.6272 9.68582 9.93557 11.407 9.85326 13.2857ZM14.2497 13.2857H18.0978V10.0138C17.0041 9.98662 15.9301 9.84925 14.8844 9.60022C14.5219 10.7863 14.3008 12.0173 14.2497 13.2857ZM18.9022 13.2857H22.7511C22.7018 12.0149 22.4958 10.7794 22.14 9.59471C21.0866 9.8474 20.0044 9.9864 18.9022 10.0138V13.2857ZM23.5955 13.2857H27.1467C27.0642 11.4018 26.3755 9.67706 25.2725 8.29571C25.248 8.41754 25.1772 8.52699 25.0557 8.57564C24.3688 8.89924 23.662 9.16325 22.942 9.37848C23.3222 10.6396 23.5472 11.9499 23.5955 13.2857ZM18.9022 9.20942C19.9165 9.18357 20.9126 9.06046 21.8863 8.83434C21.4202 7.54723 20.7734 6.32576 19.9477 5.19366C19.9385 5.18136 19.9362 5.16479 19.9288 5.1512C19.5928 5.0957 19.2503 5.05852 18.9022 5.04269V9.20942ZM18.0978 9.20863V5.04269C17.7577 5.05839 17.4231 5.09545 17.094 5.14963L17.0924 5.15356C16.2672 6.30282 15.6159 7.5341 15.1412 8.82569C16.1061 9.0519 17.0931 9.18092 18.0978 9.20863ZM22.6898 8.62282C23.3837 8.41843 24.066 8.1644 24.7337 7.85065C24.7769 7.83335 24.8223 7.82675 24.8672 7.82392C23.8616 6.73486 22.5802 5.90247 21.1291 5.44214C21.7737 6.44339 22.2914 7.5119 22.6898 8.62282ZM14.3518 8.6181C14.7535 7.50694 15.2767 6.43707 15.9322 5.42563C14.4706 5.88158 13.173 6.71697 12.154 7.81369C12.1939 7.81624 12.2382 7.82251 12.2663 7.85065C12.9474 8.15677 13.6435 8.41149 14.3518 8.6181Z"/>
</mask>
<path d="M2.41304 31C1.08587 31 0 29.913 0 28.5844V25.8873V2.41558C0 1.08701 1.08587 0 2.41304 0H34.587C35.9141 0 37 1.08701 37 2.41558V25.8873V28.5844C37 29.913 35.9141 31 34.587 31H2.41304ZM2.41304 30.1948H34.587C35.4717 30.1948 36.1957 29.4701 36.1957 28.5844V26.2899H0.804348V28.5844C0.804348 29.4701 1.52826 30.1948 2.41304 30.1948ZM2.65419 28.7857C2.33245 28.7857 2.05093 28.5039 2.05093 28.1818C2.05093 27.8597 2.33245 27.5779 2.65419 27.5779C2.97593 27.5779 3.25745 27.8597 3.25745 28.1818C3.25745 28.5039 2.97593 28.7857 2.65419 28.7857ZM4.82609 28.7857C4.46413 28.7857 4.22283 28.5039 4.22283 28.1818C4.22283 27.8597 4.50435 27.5779 4.82609 27.5779C5.14783 27.5779 5.42935 27.8597 5.42935 28.1818C5.42935 28.5039 5.18804 28.7857 4.82609 28.7857ZM6.99798 28.7857C6.67624 28.7857 6.39472 28.5039 6.39472 28.1818C6.39472 27.8597 6.67624 27.5779 6.99798 27.5779C7.31972 27.5779 7.60124 27.8597 7.60124 28.1818C7.60124 28.5039 7.31972 28.7857 6.99798 28.7857ZM2.65419 28.3831C2.73463 28.3831 2.85528 28.3026 2.85528 28.1818C2.85528 28.061 2.77484 27.9805 2.65419 27.9805C2.53354 27.9805 2.4531 28.061 2.4531 28.1818C2.4531 28.3026 2.53354 28.3831 2.65419 28.3831ZM4.82609 28.3831C4.90652 28.3831 5.02717 28.3026 5.02717 28.1818C5.02717 28.061 4.94674 27.9805 4.82609 27.9805C4.70543 27.9805 4.625 28.061 4.625 28.1818C4.625 28.3026 4.70543 28.3831 4.82609 28.3831ZM6.99798 28.3831C7.07842 28.3831 7.19907 28.3026 7.19907 28.1818C7.19907 28.061 7.11864 27.9805 6.99798 27.9805C6.87733 27.9805 6.7969 28.061 6.7969 28.1818C6.7969 28.3026 6.87733 28.3831 6.99798 28.3831ZM0.804348 25.4847H36.1957V2.41558C36.1957 1.52987 35.4717 0.805195 34.587 0.805195H2.41304C1.52826 0.805195 0.804348 1.52987 0.804348 2.41558V25.4847ZM18.5 23.1494C16.5293 23.1494 14.6793 22.5451 13.0707 21.4179C10.537 19.6464 9.04891 16.7481 9.04891 13.6883C9.04891 8.47038 13.2863 4.25431 18.4929 4.22885C18.4955 4.22881 18.4974 4.22727 18.5 4.22727L18.5055 4.22806C18.5171 4.22802 18.5285 4.22727 18.5401 4.22727C23.7281 4.22727 27.9511 8.49481 27.9511 13.6883C27.9511 18.8818 23.7283 23.1494 18.5 23.1494ZM18.9022 22.3347C19.3407 22.3164 19.7705 22.2642 20.1896 22.1822C20.9894 21.0381 21.6066 19.7847 22.0371 18.4668C21.0182 18.2166 19.9704 18.0762 18.9022 18.0477V22.3347ZM18.0978 22.3284V18.0477C17.0359 18.076 15.9941 18.2147 14.981 18.4621C15.4152 19.7713 16.0324 21.0211 16.819 22.1743C17.2381 22.2559 17.6647 22.3077 18.0978 22.3284ZM21.3592 21.8661C22.75 21.3805 23.9801 20.5483 24.945 19.4717C24.9009 19.4687 24.8562 19.4627 24.8138 19.4458C24.1676 19.1421 23.5029 18.8908 22.8249 18.6838C22.4586 19.7935 21.9673 20.8611 21.3592 21.8661ZM15.6589 21.8621C15.0553 20.8488 14.568 19.7819 14.2049 18.6744C13.5166 18.883 12.8419 19.1377 12.1862 19.4458C12.1484 19.4609 12.1085 19.4646 12.0691 19.4686C12.5079 19.955 13.004 20.3942 13.5529 20.7739C14.2034 21.2441 14.9129 21.6031 15.6589 21.8621ZM25.3495 18.9811C26.4039 17.6154 27.0661 15.9303 27.1467 14.0909H23.6026C23.582 15.3931 23.3978 16.6799 23.0574 17.9219C23.7683 18.1405 24.4639 18.4042 25.1359 18.7208C25.251 18.7669 25.3211 18.8671 25.3495 18.9811ZM11.6528 18.9669C11.6838 18.8588 11.7537 18.765 11.8641 18.7208C12.5458 18.3997 13.2516 18.1327 13.9732 17.9124C13.6378 16.6786 13.4576 15.3985 13.4375 14.0909H9.85326C9.93402 15.8695 10.5755 17.5741 11.6528 18.9669ZM22.2665 17.7017C22.5782 16.5323 22.7425 15.3192 22.759 14.0909H18.9022V17.2425C20.0501 17.2722 21.1758 17.4284 22.2665 17.7017ZM14.7485 17.6978C15.8345 17.4268 16.9552 17.2721 18.0978 17.2425V14.0909H14.241C14.2582 15.3168 14.4298 16.5274 14.7485 17.6978ZM9.85326 13.2857H13.4438C13.4913 11.9459 13.7139 10.643 14.0926 9.38948C13.3605 9.17257 12.6422 8.90445 11.9443 8.57564C11.8262 8.52836 11.7566 8.42349 11.7298 8.30593C10.6272 9.68582 9.93557 11.407 9.85326 13.2857ZM14.2497 13.2857H18.0978V10.0138C17.0041 9.98662 15.9301 9.84925 14.8844 9.60022C14.5219 10.7863 14.3008 12.0173 14.2497 13.2857ZM18.9022 13.2857H22.7511C22.7018 12.0149 22.4958 10.7794 22.14 9.59471C21.0866 9.8474 20.0044 9.9864 18.9022 10.0138V13.2857ZM23.5955 13.2857H27.1467C27.0642 11.4018 26.3755 9.67706 25.2725 8.29571C25.248 8.41754 25.1772 8.52699 25.0557 8.57564C24.3688 8.89924 23.662 9.16325 22.942 9.37848C23.3222 10.6396 23.5472 11.9499 23.5955 13.2857ZM18.9022 9.20942C19.9165 9.18357 20.9126 9.06046 21.8863 8.83434C21.4202 7.54723 20.7734 6.32576 19.9477 5.19366C19.9385 5.18136 19.9362 5.16479 19.9288 5.1512C19.5928 5.0957 19.2503 5.05852 18.9022 5.04269V9.20942ZM18.0978 9.20863V5.04269C17.7577 5.05839 17.4231 5.09545 17.094 5.14963L17.0924 5.15356C16.2672 6.30282 15.6159 7.5341 15.1412 8.82569C16.1061 9.0519 17.0931 9.18092 18.0978 9.20863ZM22.6898 8.62282C23.3837 8.41843 24.066 8.1644 24.7337 7.85065C24.7769 7.83335 24.8223 7.82675 24.8672 7.82392C23.8616 6.73486 22.5802 5.90247 21.1291 5.44214C21.7737 6.44339 22.2914 7.5119 22.6898 8.62282ZM14.3518 8.6181C14.7535 7.50694 15.2767 6.43707 15.9322 5.42563C14.4706 5.88158 13.173 6.71697 12.154 7.81369C12.1939 7.81624 12.2382 7.82251 12.2663 7.85065C12.9474 8.15677 13.6435 8.41149 14.3518 8.6181Z" fill="#525252" stroke="#525252" stroke-width="2" mask="url(#path-1-inside-1)"/>
</svg>
